<?xml version="1.0" encoding="utf-8"?>
<!-- Generator: Adobe Illustrator 19.0.0, SVG Export Plug-In . SVG Version: 6.00 Build 0)  -->
<svg version="1.1" id="Layer_1" xmlns="http://www.w3.org/2000/svg" xmlns:xlink="http://www.w3.org/1999/xlink" x="0px" y="0px"
	 viewBox="202 -80.1 534 148" style="enable-background:new 202 -80.1 534 148;" xml:space="preserve">
<style type="text/css">
	.st0{opacity:5.000000e-02;fill:#0000FF;enable-background:new    ;}
	.st1{opacity:0.15;fill:#0000FF;enable-background:new    ;}
	.st2{opacity:0.3;fill:#0000FF;enable-background:new    ;}
	.st3{fill:#0000FF;}
</style>
<g>
	<g>
		<path d="M423.3-13.1c-10.3,0-20.5-6.4-20.5-23.6c0-17.2,10.2-23.5,20.5-23.5c6.3,0,10.8,1.8,15.1,6.4l-6.3,6.2
			c-2.9-3.2-5.2-4.4-8.8-4.4c-3.5,0-6.5,1.5-8.5,4.1c-2,2.5-2.7,5.8-2.7,11.2c0,5.4,0.7,8.7,2.7,11.2c2,2.6,5,4.1,8.5,4.1
			c3.6,0,5.9-1.2,8.8-4.4l6.3,6.1C434.1-15,429.6-13.1,423.3-13.1z"/>
		<path d="M477.2-18.5c-3,3.1-7.5,5.4-13.8,5.4c-6.3,0-10.7-2.4-13.7-5.4c-4.4-4.5-5.4-10.3-5.4-18.1c0-7.7,1.1-13.5,5.4-18
			c3-3.1,7.4-5.4,13.7-5.4c6.3,0,10.8,2.4,13.8,5.4c4.4,4.5,5.4,10.3,5.4,18C482.7-28.9,481.6-23.1,477.2-18.5z M470.2-49.3
			c-1.7-1.7-4.1-2.6-6.8-2.6c-2.7,0-5,0.9-6.7,2.6c-2.8,2.8-3.2,7.6-3.2,12.6s0.4,9.8,3.2,12.6c1.7,1.7,4,2.7,6.7,2.7
			c2.7,0,5.1-1,6.8-2.7c2.8-2.8,3.2-7.6,3.2-12.6S473.1-46.5,470.2-49.3z"/>
		<path d="M519.5-13.6v-4.9c-3.4,4.2-7.2,5.4-12.2,5.4c-4.6,0-8.7-1.5-11.2-4.1c-4.6-4.6-5.2-12.5-5.2-19.5c0-7,0.5-14.8,5.2-19.4
			c2.5-2.5,6.5-4.1,11.2-4.1c4.9,0,8.7,1.2,12.1,5.2v-23.2h9.2v64.6L519.5-13.6L519.5-13.6z M509.8-51.9c-8.3,0-9.6,7.1-9.6,15.2
			c0,8.2,1.3,15.3,9.6,15.3c8.3,0,9.5-7.2,9.5-15.3C519.3-44.8,518.1-51.9,509.8-51.9z"/>
		<path d="M546-33.9c0,7.9,4.2,12.9,11.7,12.9c5.2,0,7.9-1.5,11.2-4.7l5.9,5.5c-4.7,4.7-9.2,7.2-17.2,7.2
			c-11.5,0-20.7-6.1-20.7-23.6c0-14.9,7.7-23.5,19.5-23.5c12.3,0,19.5,9.1,19.5,22.1v4.1L546-33.9L546-33.9z M565.4-46.6
			c-1.5-3.4-4.7-5.8-9.1-5.8s-7.7,2.4-9.2,5.8c-0.9,2.1-1.1,3.4-1.2,6.3h20.7C566.6-43.2,566.3-44.6,565.4-46.6z"/>
	</g>
	<g>
		<path d="M616.7-51.5v38.1h-9.3v-38.1h-5.3v-7.1h5.3v-7.1c0-6.6,4-12.8,12.6-12.8h5.8v7.9h-4.1c-3.4,0-5.1,2-5.1,5.4v6.6h9.2v7.1
			L616.7-51.5L616.7-51.5z"/>
		<path d="M662.5-18.3c-3,3.1-7.5,5.4-13.8,5.4c-6.3,0-10.7-2.4-13.7-5.4c-4.4-4.5-5.4-10.3-5.4-18.1c0-7.7,1.1-13.5,5.4-18
			c3-3.1,7.4-5.4,13.7-5.4c6.3,0,10.8,2.4,13.8,5.4c4.4,4.5,5.4,10.3,5.4,18C668-28.7,666.9-22.9,662.5-18.3z M655.5-49.1
			c-1.7-1.7-4.1-2.6-6.8-2.6c-2.7,0-5,0.9-6.7,2.6c-2.8,2.8-3.2,7.6-3.2,12.6s0.4,9.8,3.2,12.6c1.7,1.7,4,2.7,6.7,2.7
			c2.7,0,5.1-1,6.8-2.7c2.8-2.8,3.2-7.6,3.2-12.6S658.3-46.3,655.5-49.1z"/>
		<path d="M700.7-48.6c-2.1-2.1-3.7-3.1-6.9-3.1c-5,0-9.2,4-9.2,10.3v27.9h-9.2v-46h9.1v5c2.4-3.3,7.1-5.5,12.2-5.5
			c4.4,0,7.8,1.2,11,4.4L700.7-48.6z"/>
	</g>
	<g>
		<path d="M439.3,67.3l-13.6-27.2h-12.2v27.2h-9.8V2.8h25c12.2,0,20,7.9,20,18.9c0,9.2-5.6,15.1-12.9,17.1l14.9,28.6H439.3z
			 M428,11.6h-14.5v20.2H428c6.5,0,11-3.7,11-10.1S434.5,11.6,428,11.6z"/>
		<path d="M489.6,62.4c-3,3.1-7.5,5.4-13.8,5.4c-6.3,0-10.7-2.4-13.7-5.4c-4.4-4.5-5.4-10.3-5.4-18.1c0-7.7,1.1-13.5,5.4-18
			c3-3.1,7.4-5.4,13.7-5.4c6.3,0,10.8,2.4,13.8,5.4c4.4,4.5,5.4,10.3,5.4,18C495,52.1,493.9,57.9,489.6,62.4z M482.6,31.7
			c-1.7-1.7-4.1-2.6-6.8-2.6c-2.7,0-5,0.9-6.7,2.6c-2.8,2.8-3.2,7.6-3.2,12.6s0.4,9.8,3.2,12.6c1.7,1.7,4,2.7,6.7,2.7
			c2.7,0,5.1-1,6.8-2.7c2.8-2.8,3.2-7.6,3.2-12.6S485.4,34.5,482.6,31.7z"/>
		<path d="M560.4,67.3v-28c0-7.2-4.1-10.2-9.3-10.2c-5,0-9.5,3.2-9.5,9.8v28.5h-9.3v-28c0-7.2-4.1-10.2-9.2-10.2s-9.5,3.2-9.5,10.2
			v28h-9.3v-46h9.1V26c3.1-3.4,7.6-5.2,12.2-5.2c5.7,0,10.2,2.3,13.1,6.7c3.7-4.5,8.3-6.7,14.4-6.7c4.7,0,8.9,1.5,11.6,4.2
			c3.5,3.4,4.9,7.8,4.9,13v29.4L560.4,67.3L560.4,67.3z"/>
		<path d="M607.5,67.3v-4.2c-3.4,3.4-6.5,4.7-12.2,4.7s-9.5-1.4-12.3-4.2c-2.4-2.4-3.6-6-3.6-9.9c0-7.7,5.4-13.2,15.9-13.2h12.2
			v-3.3c0-5.8-2.9-8.6-10.1-8.6c-5.1,0-7.5,1.2-10.1,4.4l-6.1-5.7c4.4-5.1,8.9-6.6,16.5-6.6c12.6,0,19,5.4,19,15.8v30.7L607.5,67.3
			L607.5,67.3z M607.3,47h-10.8c-5.4,0-8.3,2.4-8.3,6.6s2.6,6.5,8.4,6.5c3.5,0,6.2-0.3,8.6-2.6c1.4-1.4,2-3.5,2-6.8L607.3,47
			L607.3,47z"/>
		<path d="M655.6,67.3v-28c0-7.2-4.1-10.2-9.2-10.2s-9.5,3.2-9.5,10.2v28h-9.3v-46h9.1V26c3.2-3.4,7.6-5.2,12.2-5.2
			c4.7,0,8.6,1.5,11.3,4.2c3.5,3.4,4.6,7.8,4.6,13v29.4L655.6,67.3L655.6,67.3z"/>
		<rect x="675.7" y="-0.5" width="9.8" height="9.8"/>
		<rect x="675.9" y="21.4" width="9.2" height="46"/>
		<path d="M722.5,67.3v-4.2c-3.4,3.4-6.5,4.7-12.2,4.7c-5.7,0-9.5-1.4-12.3-4.2c-2.4-2.4-3.6-6-3.6-9.9c0-7.7,5.3-13.2,15.9-13.2
			h12.2v-3.3c0-5.8-2.9-8.6-10.1-8.6c-5.1,0-7.5,1.2-10.1,4.4l-6.1-5.7c4.4-5.1,8.9-6.6,16.5-6.6c12.6,0,19,5.4,19,15.8v30.7
			L722.5,67.3L722.5,67.3z M722.3,47h-10.8c-5.4,0-8.3,2.4-8.3,6.6s2.6,6.5,8.4,6.5c3.5,0,6.2-0.3,8.6-2.6c1.4-1.4,2-3.5,2-6.8
			L722.3,47L722.3,47z"/>
	</g>
	<polygon class="st0" points="371.4,-5.8 329.6,-75.6 294.3,-80.1 294.3,-80.1 293.9,-9.3 	"/>
	<polygon class="st1" points="293.9,-9.3 293.4,66.7 333.3,63.8 371.6,-5.4 371.4,-5.8 	"/>
	<polygon class="st1" points="293.9,-9.3 294.3,-80.1 257.4,-75.6 214.8,-5.9 	"/>
	<polygon class="st2" points="214.8,-5.9 214.6,-5.4 253.7,63.8 293.4,66.7 293.4,66.7 293.9,-9.3 	"/>
	<g>
		<polygon class="st3" points="245.7,-74.2 205,-4.8 243,63.1 262.7,64.5 223.8,-6.3 266.6,-76.8 		"/>
		<polygon class="st3" points="341.8,-73.6 320.5,-76.8 362.1,-6.2 324.7,64.6 344.5,63.1 380.7,-6.1 		"/>
	</g>
</g>
</svg>
