<?xml version="1.0" encoding="utf-8"?>
<!-- Generator: Adobe Illustrator 19.0.0, SVG Export Plug-In . SVG Version: 6.00 Build 0)  -->
<svg version="1.1" id="Layer_1" xmlns="http://www.w3.org/2000/svg" xmlns:xlink="http://www.w3.org/1999/xlink" x="0px" y="0px"
	 viewBox="-233 356.9 128 128" style="enable-background:new -233 356.9 128 128;" xml:space="preserve">
<style type="text/css">
	.st0{fill:#FFFFFF;}
	.st1{fill:#0000FF;}
	.st2{opacity:0.3;}
	.st3{display:none;}
	.st4{display:inline;fill:none;stroke:#919191;stroke-width:0.25;stroke-miterlimit:10;}
</style>
<g id="icon">
	<g>
		<g>
			<g>
				<rect x="-210" y="402.9" class="st0" width="8" height="44"/>
			</g>
			<g>
				<path class="st1" d="M-204,404.9v40h-4v-40H-204 M-200,400.9h-12v48h12V400.9L-200,400.9z"/>
			</g>
		</g>
		<g>
			<g>
				<rect x="-186" y="402.9" class="st0" width="8" height="44"/>
			</g>
			<g>
				<path class="st1" d="M-180,404.9v40h-4v-40H-180 M-176,400.9h-12v48h12V400.9L-176,400.9z"/>
			</g>
		</g>
		<g>
			<g>
				<rect x="-158" y="402.9" class="st0" width="8" height="44"/>
			</g>
			<g>
				<path class="st1" d="M-152,404.9v40h-4v-40H-152 M-148,400.9h-12v48h12V400.9L-148,400.9z"/>
			</g>
		</g>
		<g>
			<g>
				<rect x="-134" y="402.9" class="st0" width="8" height="44"/>
			</g>
			<g>
				<path class="st1" d="M-128,404.9v40h-4v-40H-128 M-124,400.9h-12v48h12V400.9L-124,400.9z"/>
			</g>
		</g>
		<g>
			<rect x="-220" y="448.9" class="st0" width="104" height="16"/>
			<path class="st1" d="M-116,468.9h-104c-2.2,0-4-1.8-4-4v-16c0-2.2,1.8-4,4-4h104c2.2,0,4,1.8,4,4v16
				C-112,467.1-113.8,468.9-116,468.9z M-216,460.9h96v-8h-96V460.9z"/>
		</g>
		<g class="st2">
			<path class="st1" d="M-125.1,454.9h-97.8c-1.7,0-3.1,1.4-3.1,3.1v11.9c0,1.7,1.4,3.1,3.1,3.1h97.9c1.7,0,3.1-1.4,3.1-3.1V458
				C-122,456.3-123.4,454.9-125.1,454.9z"/>
		</g>
		<g>
			<g>
				<path class="st0" d="M-212,410.9c-1.1,0-2-0.9-2-2v-8c0-1.1,0.9-2,2-2h12c1.1,0,2,0.9,2,2v8c0,1.1-0.9,2-2,2H-212z"/>
			</g>
			<g>
				<path class="st1" d="M-200,400.9v8h-12v-8H-200 M-200,396.9h-12c-2.2,0-4,1.8-4,4v8c0,2.2,1.8,4,4,4h12c2.2,0,4-1.8,4-4v-8
					C-196,398.7-197.8,396.9-200,396.9L-200,396.9z"/>
			</g>
		</g>
		<g>
			<g>
				<path class="st0" d="M-188,410.9c-1.1,0-2-0.9-2-2v-8c0-1.1,0.9-2,2-2h12c1.1,0,2,0.9,2,2v8c0,1.1-0.9,2-2,2H-188z"/>
			</g>
			<g>
				<path class="st1" d="M-176,400.9v8h-12v-8H-176 M-176,396.9h-12c-2.2,0-4,1.8-4,4v8c0,2.2,1.8,4,4,4h12c2.2,0,4-1.8,4-4v-8
					C-172,398.7-173.8,396.9-176,396.9L-176,396.9z"/>
			</g>
		</g>
		<g>
			<g>
				<path class="st0" d="M-160,410.9c-1.1,0-2-0.9-2-2v-8c0-1.1,0.9-2,2-2h12c1.1,0,2,0.9,2,2v8c0,1.1-0.9,2-2,2H-160z"/>
			</g>
			<g>
				<path class="st1" d="M-148,400.9v8h-12v-8H-148 M-148,396.9h-12c-2.2,0-4,1.8-4,4v8c0,2.2,1.8,4,4,4h12c2.2,0,4-1.8,4-4v-8
					C-144,398.7-145.8,396.9-148,396.9L-148,396.9z"/>
			</g>
		</g>
		<g>
			<g>
				<path class="st0" d="M-136,410.9c-1.1,0-2-0.9-2-2v-8c0-1.1,0.9-2,2-2h12c1.1,0,2,0.9,2,2v8c0,1.1-0.9,2-2,2H-136z"/>
			</g>
			<g>
				<path class="st1" d="M-124,400.9v8h-12v-8H-124 M-124,396.9h-12c-2.2,0-4,1.8-4,4v8c0,2.2,1.8,4,4,4h12c2.2,0,4-1.8,4-4v-8
					C-120,398.7-121.8,396.9-124,396.9L-124,396.9z"/>
			</g>
		</g>
		<g>
			<polygon class="st0" points="-168,372.9 -216,390.4 -216,400.9 -120,400.9 -120,390.4 			"/>
			<path class="st1" d="M-120,404.9h-96c-2.2,0-4-1.8-4-4v-10.5c0-1.7,1.1-3.2,2.6-3.8l48-17.5c0.9-0.3,1.9-0.3,2.7,0l48,17.5
				c1.6,0.6,2.6,2.1,2.6,3.8v10.5C-116,403.1-117.8,404.9-120,404.9z M-212,396.9h88v-3.7l-44-16l-44,16V396.9z"/>
		</g>
		<g class="st2">
			<path class="st1" d="M-174.1,381.3l-47.8,16.4c-1.3,0.4-2.1,1.5-2.1,2.8v5.5c0,1.6,1.4,2.9,3.1,2.9h95.7c1.7,0,3.1-1.3,3.1-2.9
				v-5.5c0-1.2-0.8-2.3-2.1-2.8l-47.8-16.4C-172.7,381-173.4,381-174.1,381.3z"/>
		</g>
	</g>
</g>
<g id="grid" class="st3">
	<line class="st4" x1="-233" y1="356.9" x2="-105" y2="484.9"/>
	<line class="st4" x1="-105" y1="356.9" x2="-233" y2="484.9"/>
	<circle class="st4" cx="-169" cy="420.9" r="52"/>
	<rect x="-233" y="356.9" class="st4" width="128" height="128"/>
	<line class="st4" x1="-117" y1="356.9" x2="-117" y2="484.9"/>
	<line class="st4" x1="-221" y1="484.9" x2="-221" y2="356.9"/>
	<line class="st4" x1="-105" y1="472.9" x2="-233" y2="472.9"/>
	<line class="st4" x1="-233" y1="368.9" x2="-105" y2="368.9"/>
	<line class="st4" x1="-169" y1="484.9" x2="-169" y2="356.9"/>
	<line class="st4" x1="-233" y1="420.9" x2="-105" y2="420.9"/>
</g>
</svg>
