<?xml version="1.0" encoding="utf-8"?>
<!-- Generator: Adobe Illustrator 19.0.0, SVG Export Plug-In . SVG Version: 6.00 Build 0)  -->
<svg version="1.1" id="Layer_1" xmlns="http://www.w3.org/2000/svg" xmlns:xlink="http://www.w3.org/1999/xlink" x="0px" y="0px"
	 viewBox="-233 356.9 128 128" style="enable-background:new -233 356.9 128 128;" xml:space="preserve">
<style type="text/css">
	.st0{fill:#FFFFFF;}
	.st1{display:none;}
	.st2{display:inline;fill:none;stroke:#919191;stroke-width:0.25;stroke-miterlimit:10;}
</style>
<g id="icon">
	<g>
		<path class="st0" d="M-634.3,1088.7c24.3,0,44,19.7,44,44c0,24.3-19.7,44-44,44s-44-19.7-44-44
			C-678.3,1108.4-658.6,1088.7-634.3,1088.7 M-634.3,1080.7c-28.7,0-52,23.3-52,52c0,28.7,23.3,52,52,52s52-23.3,52-52
			C-582.3,1104-605.6,1080.7-634.3,1080.7L-634.3,1080.7z"/>
	</g>
	<g>
		<path class="st0" d="M-634.3,1093.7L-634.3,1093.7L-634.3,1093.7c-2,0-3.6,1.6-3.6,3.5s1.6,3.5,3.5,3.5l0,0l0,0l0,0
			c0.1,0,0.2,0,0.2,0c0.1,0,0.2,0,0.2,0l0,0l0,0l0,0c0,0,0,0,0.1,0c1.9,0,3.5-1.5,3.5-3.4s-1.5-3.5-3.4-3.6h-0.1c0,0,0,0-0.1,0
			C-634.1,1093.7-634.2,1093.7-634.3,1093.7C-634.1,1093.7-634.2,1093.7-634.3,1093.7L-634.3,1093.7z M-655.1,1100.4
			c-0.7,0-1.4,0.2-2.1,0.7h-0.1c-1.6,1.1-1.9,3.3-0.8,4.9c0.7,0.9,1.8,1.4,2.8,1.4c0.7,0,1.4-0.2,2.1-0.7l0,0l0,0
			c1.6-1.1,1.9-3.3,0.8-4.9C-653,1100.9-654,1100.4-655.1,1100.4L-655.1,1100.4z M-668,1118.1c-1.5,0-2.8,0.9-3.3,2.4v0.1
			c-0.6,1.8,0.4,3.8,2.2,4.4c0.4,0.1,0.7,0.2,1.1,0.2c1.5,0,2.8-0.9,3.3-2.4l0,0l0,0c0.6-1.8-0.4-3.8-2.2-4.4
			C-667.3,1118.1-667.7,1118.1-668,1118.1L-668,1118.1z M-668.1,1140c-0.4,0-0.7,0.1-1.1,0.2c-1.8,0.6-2.9,2.6-2.3,4.4v0.1
			c0.5,1.5,1.8,2.4,3.3,2.4c0.4,0,0.7-0.1,1.1-0.2c1.8-0.6,2.9-2.6,2.3-4.4l0,0l0,0C-665.3,1140.9-666.6,1140-668.1,1140
			L-668.1,1140z M-655.4,1157.7c-1.1,0-2.1,0.5-2.8,1.4c-1.1,1.6-0.8,3.7,0.7,4.9h0.1c0.6,0.5,1.4,0.7,2.1,0.7
			c1.1,0,2.1-0.5,2.8-1.4c1.1-1.6,0.8-3.7-0.7-4.9l0,0l0,0C-653.9,1158-654.6,1157.7-655.4,1157.7L-655.4,1157.7z M-634.6,1164.7
			c-1.9,0-3.5,1.6-3.5,3.5s1.5,3.5,3.5,3.5h0.1l0,0c1.9,0,3.5-1.6,3.5-3.5C-631,1166.3-632.6,1164.7-634.6,1164.7
			C-634.5,1164.7-634.5,1164.7-634.6,1164.7L-634.6,1164.7L-634.6,1164.7L-634.6,1164.7L-634.6,1164.7L-634.6,1164.7z
			 M-613.7,1158.1c-0.7,0-1.4,0.2-2,0.7l0,0l0,0l0,0l0,0c-1.6,1.1-1.9,3.3-0.8,4.9c0.7,1,1.8,1.5,2.9,1.5c0.7,0,1.4-0.2,2-0.7h0.1
			c1.6-1.1,1.9-3.3,0.8-4.9C-611.5,1158.6-612.6,1158.1-613.7,1158.1L-613.7,1158.1z M-600.6,1140.5c-1.5,0-2.8,0.9-3.3,2.4l0,0l0,0
			c-0.6,1.8,0.4,3.8,2.2,4.4c0.4,0.1,0.7,0.2,1.1,0.2c1.5,0,2.8-0.9,3.3-2.4v-0.1c0.6-1.8-0.4-3.8-2.2-4.4
			C-599.9,1140.5-600.3,1140.5-600.6,1140.5L-600.6,1140.5z M-600.4,1118.6c-0.3,0-0.7,0.1-1,0.2c-1.8,0.6-2.9,2.5-2.3,4.4
			c0,0,0,0,0,0.1c0.5,1.5,1.9,2.5,3.3,2.5c0.3,0,0.7-0.1,1-0.2c1.8-0.6,2.9-2.5,2.3-4.4v-0.1
			C-597.5,1119.5-598.9,1118.6-600.4,1118.6L-600.4,1118.6z M-613,1100.7c-1.1,0-2.1,0.5-2.8,1.4c-1.2,1.5-0.8,3.7,0.7,4.9l0,0l0,0
			c0.6,0.5,1.4,0.7,2.1,0.7c1.1,0,2.1-0.5,2.8-1.4c1.2-1.5,0.8-3.7-0.7-4.9h-0.1C-611.6,1101-612.3,1100.7-613,1100.7L-613,1100.7z"
			/>
	</g>
	<g>
		<path class="st0" d="M-646.3,1148.7c-1.5,0-2.9-0.8-3.6-2.2c-1-2-0.2-4.4,1.8-5.4l13.8-6.9v-17.5c0-2.2,1.8-4,4-4c2.2,0,4,1.8,4,4
			v20c0,1.5-0.9,2.9-2.2,3.6l-16,8C-645.1,1148.5-645.7,1148.7-646.3,1148.7z"/>
	</g>
</g>
<g id="grid" class="st1">
	<line class="st2" x1="-932" y1="1427.6" x2="-804" y2="1555.6"/>
	<line class="st2" x1="-804" y1="1427.6" x2="-932" y2="1555.6"/>
	<circle class="st2" cx="-868" cy="1491.6" r="52"/>
	<rect x="-932" y="1427.6" class="st2" width="128" height="128"/>
	<line class="st2" x1="-816" y1="1427.6" x2="-816" y2="1555.6"/>
	<line class="st2" x1="-920" y1="1555.6" x2="-920" y2="1427.6"/>
	<line class="st2" x1="-804" y1="1543.6" x2="-932" y2="1543.6"/>
	<line class="st2" x1="-932" y1="1439.6" x2="-804" y2="1439.6"/>
	<line class="st2" x1="-868" y1="1555.6" x2="-868" y2="1427.6"/>
	<line class="st2" x1="-932" y1="1491.6" x2="-804" y2="1491.6"/>
</g>
<g id="icon_1_">
	<g>
		<path class="st0" d="M-167.3,374.8c24.3,0,44,19.7,44,44s-19.7,44-44,44s-44-19.7-44-44S-191.6,374.8-167.3,374.8 M-167.3,366.8
			c-28.7,0-52,23.3-52,52s23.3,52,52,52s52-23.3,52-52S-138.6,366.8-167.3,366.8L-167.3,366.8z"/>
	</g>
	<g>
		<path class="st0" d="M-167.3,379.8L-167.3,379.8L-167.3,379.8c-2,0-3.6,1.6-3.6,3.5s1.6,3.5,3.5,3.5l0,0l0,0l0,0
			c0.1,0,0.2,0,0.2,0c0.1,0,0.2,0,0.2,0l0,0l0,0l0,0c0,0,0,0,0.1,0c1.9,0,3.5-1.5,3.5-3.4s-1.5-3.5-3.4-3.6h-0.1c0,0,0,0-0.1,0
			S-167.2,379.8-167.3,379.8C-167.1,379.8-167.2,379.8-167.3,379.8L-167.3,379.8z M-188.1,386.5c-0.7,0-1.4,0.2-2.1,0.7h-0.1
			c-1.6,1.1-1.9,3.3-0.8,4.9c0.7,0.9,1.8,1.4,2.8,1.4c0.7,0,1.4-0.2,2.1-0.7l0,0l0,0c1.6-1.1,1.9-3.3,0.8-4.9
			C-186,387-187,386.5-188.1,386.5L-188.1,386.5z M-201,404.2c-1.5,0-2.8,0.9-3.3,2.4v0.1c-0.6,1.8,0.4,3.8,2.2,4.4
			c0.4,0.1,0.7,0.2,1.1,0.2c1.5,0,2.8-0.9,3.3-2.4l0,0l0,0c0.6-1.8-0.4-3.8-2.2-4.4C-200.3,404.2-200.7,404.2-201,404.2L-201,404.2z
			 M-201.1,426.1c-0.4,0-0.7,0.1-1.1,0.2c-1.8,0.6-2.9,2.6-2.3,4.4v0.1c0.5,1.5,1.8,2.4,3.3,2.4c0.4,0,0.7-0.1,1.1-0.2
			c1.8-0.6,2.9-2.6,2.3-4.4l0,0l0,0C-198.3,427-199.6,426.1-201.1,426.1L-201.1,426.1z M-188.4,443.8c-1.1,0-2.1,0.5-2.8,1.4
			c-1.1,1.6-0.8,3.7,0.7,4.9h0.1c0.6,0.5,1.4,0.7,2.1,0.7c1.1,0,2.1-0.5,2.8-1.4c1.1-1.6,0.8-3.7-0.7-4.9l0,0l0,0
			C-186.9,444.1-187.6,443.8-188.4,443.8L-188.4,443.8z M-167.6,450.8c-1.9,0-3.5,1.6-3.5,3.5s1.5,3.5,3.5,3.5h0.1l0,0
			c1.9,0,3.5-1.6,3.5-3.5S-165.6,450.8-167.6,450.8C-167.5,450.8-167.5,450.8-167.6,450.8L-167.6,450.8L-167.6,450.8L-167.6,450.8
			L-167.6,450.8L-167.6,450.8z M-146.7,444.2c-0.7,0-1.4,0.2-2,0.7l0,0l0,0l0,0l0,0c-1.6,1.1-1.9,3.3-0.8,4.9c0.7,1,1.8,1.5,2.9,1.5
			c0.7,0,1.4-0.2,2-0.7h0.1c1.6-1.1,1.9-3.3,0.8-4.9C-144.5,444.7-145.6,444.2-146.7,444.2L-146.7,444.2z M-133.6,426.6
			c-1.5,0-2.8,0.9-3.3,2.4l0,0l0,0c-0.6,1.8,0.4,3.8,2.2,4.4c0.4,0.1,0.7,0.2,1.1,0.2c1.5,0,2.8-0.9,3.3-2.4v-0.1
			c0.6-1.8-0.4-3.8-2.2-4.4C-132.9,426.6-133.3,426.6-133.6,426.6L-133.6,426.6z M-133.4,404.7c-0.3,0-0.7,0.1-1,0.2
			c-1.8,0.6-2.9,2.5-2.3,4.4c0,0,0,0,0,0.1c0.5,1.5,1.9,2.5,3.3,2.5c0.3,0,0.7-0.1,1-0.2c1.8-0.6,2.9-2.5,2.3-4.4v-0.1
			C-130.5,405.6-131.9,404.7-133.4,404.7L-133.4,404.7z M-146,386.8c-1.1,0-2.1,0.5-2.8,1.4c-1.2,1.5-0.8,3.7,0.7,4.9l0,0l0,0
			c0.6,0.5,1.4,0.7,2.1,0.7c1.1,0,2.1-0.5,2.8-1.4c1.2-1.5,0.8-3.7-0.7-4.9h-0.1C-144.6,387.1-145.3,386.8-146,386.8L-146,386.8z"/>
	</g>
	<g>
		<path class="st0" d="M-179.3,434.8c-1.5,0-2.9-0.8-3.6-2.2c-1-2-0.2-4.4,1.8-5.4l13.8-6.9v-17.5c0-2.2,1.8-4,4-4s4,1.8,4,4v20
			c0,1.5-0.9,2.9-2.2,3.6l-16,8C-178.1,434.6-178.7,434.8-179.3,434.8z"/>
	</g>
</g>
</svg>
