<?xml version="1.0" encoding="utf-8"?>
<!-- Generator: Adobe Illustrator 19.0.0, SVG Export Plug-In . SVG Version: 6.00 Build 0)  -->
<svg version="1.1" id="Layer_1" xmlns="http://www.w3.org/2000/svg" xmlns:xlink="http://www.w3.org/1999/xlink" x="0px" y="0px"
	 viewBox="-233 356.9 128 128" style="enable-background:new -233 356.9 128 128;" xml:space="preserve">
<style type="text/css">
	.st0{fill:#FFFFFF;}
	.st1{fill:#0000FF;}
	.st2{fill:#FFFFFF;stroke:#0000FF;stroke-width:8;stroke-miterlimit:10;}
	.st3{fill:none;}
	.st4{opacity:0.3;}
	.st5{display:none;}
	.st6{display:inline;fill:none;stroke:#919191;stroke-width:0.25;stroke-miterlimit:10;}
</style>
<g id="icon">
	<g>
		<g>
			<path class="st0" d="M-193,455.4c0,6.9,16.1,12.5,36,12.5s36-5.6,36-12.5v-17.2"/>
			<path class="st1" d="M-157,471.9c-10.1,0-19.6-1.4-26.8-3.9c-10.9-3.8-13.2-9-13.2-12.6h8c0,2.5,11.2,8.5,32,8.5s32-6,32-8.5
				v-17.2h8v17.2c0,3.7-2.3,8.8-13.2,12.6C-137.4,470.6-146.9,471.9-157,471.9z"/>
		</g>
		<g>
			<path class="st2" d="M-193,455.4"/>
		</g>
		<g>
			<ellipse class="st0" cx="-157" cy="438.2" rx="36" ry="12.5"/>
			<path class="st1" d="M-157,454.7c-10.1,0-19.6-1.4-26.8-3.9c-10.9-3.8-13.2-8.9-13.2-12.6c0-3.7,2.3-8.8,13.2-12.6
				c7.2-2.5,16.7-3.9,26.8-3.9s19.6,1.4,26.8,3.9c10.9,3.8,13.2,9,13.2,12.6c0,3.7-2.3,8.8-13.2,12.6
				C-137.4,453.3-146.9,454.7-157,454.7z M-157,429.7c-20.8,0-32,6-32,8.5s11.2,8.5,32,8.5s32-6,32-8.5S-136.2,429.7-157,429.7z"/>
		</g>
		<g>
			<rect x="-183" y="446.9" class="st1" width="4" height="17.6"/>
		</g>
		<g>
			<rect x="-171" y="448.4" class="st1" width="4" height="17.6"/>
		</g>
		<g>
			<rect x="-159" y="448.4" class="st1" width="4" height="17.6"/>
		</g>
		<g>
			<rect x="-147" y="448.4" class="st1" width="4" height="19.1"/>
		</g>
		<g>
			<rect x="-135" y="446.9" class="st1" width="4" height="19.1"/>
		</g>
		<g>
			<line class="st3" x1="-193" y1="455.4" x2="-193" y2="438.2"/>
			<rect x="-197" y="438.2" class="st1" width="8" height="17.2"/>
		</g>
		<g class="st4">
			<ellipse class="st1" cx="-161" cy="446.2" rx="36" ry="12.5"/>
		</g>
	</g>
	<g>
		<g>
			<path class="st0" d="M-205,437.2c0,6.9,16.1,12.5,36,12.5s36-5.6,36-12.5v-17.3"/>
			<path class="st1" d="M-169,453.7c-10.1,0-19.6-1.4-26.8-3.9c-10.9-3.8-13.2-9-13.2-12.6h8c0,2.5,11.2,8.5,32,8.5s32-6,32-8.5
				v-17.3h8v17.2c0,3.7-2.3,8.8-13.2,12.6C-149.4,452.3-158.9,453.7-169,453.7z"/>
		</g>
		<g>
			<path class="st2" d="M-205,437.2"/>
		</g>
		<g>
			<ellipse class="st0" cx="-169" cy="419.9" rx="36" ry="12.5"/>
			<path class="st1" d="M-169,436.5c-10.1,0-19.6-1.4-26.8-3.9c-10.9-3.8-13.2-9-13.2-12.7c0-3.7,2.3-8.8,13.2-12.6
				c7.2-2.5,16.7-3.9,26.8-3.9s19.6,1.4,26.8,3.9c10.9,3.8,13.2,9,13.2,12.6c0,3.7-2.3,8.8-13.2,12.6
				C-149.4,435.1-158.9,436.5-169,436.5z M-169,411.4c-20.8,0-32,6-32,8.5s11.2,8.5,32,8.5s32-6,32-8.5S-148.2,411.4-169,411.4z"/>
		</g>
		<g>
			<rect x="-195" y="428.6" class="st1" width="4" height="17.6"/>
		</g>
		<g>
			<rect x="-183" y="430.1" class="st1" width="4" height="17.6"/>
		</g>
		<g>
			<rect x="-171" y="430.1" class="st1" width="4" height="17.6"/>
		</g>
		<g>
			<rect x="-159" y="430.1" class="st1" width="4" height="19.1"/>
		</g>
		<g>
			<rect x="-147" y="428.6" class="st1" width="4" height="19.1"/>
		</g>
		<g>
			<line class="st3" x1="-205" y1="437.2" x2="-205" y2="419.9"/>
			<rect x="-209" y="419.9" class="st1" width="8" height="17.2"/>
		</g>
		<g class="st4">
			<ellipse class="st1" cx="-173" cy="427.9" rx="36" ry="12.5"/>
		</g>
	</g>
	<g>
		<g>
			<path class="st0" d="M-217,419.4c0,6.9,16.1,12.5,36,12.5s36-5.6,36-12.5v-17.2"/>
			<path class="st1" d="M-181,435.9c-10.1,0-19.6-1.4-26.8-3.9c-10.9-3.7-13.2-8.9-13.2-12.6h8c0,2.5,11.2,8.5,32,8.5s32-6,32-8.5
				v-17.2h8v17.2c0,3.7-2.3,8.8-13.2,12.6C-161.4,434.6-170.9,435.9-181,435.9z"/>
		</g>
		<g>
			<path class="st2" d="M-217,419.4"/>
		</g>
		<g>
			<ellipse class="st0" cx="-181" cy="402.2" rx="36" ry="12.5"/>
			<path class="st1" d="M-181,418.7c-10.1,0-19.6-1.4-26.8-3.9c-10.9-3.8-13.2-8.9-13.2-12.6s2.3-8.8,13.2-12.6
				c7.2-2.5,16.7-3.9,26.8-3.9s19.6,1.4,26.8,3.9c10.9,3.8,13.2,9,13.2,12.6c0,3.7-2.3,8.8-13.2,12.6
				C-161.4,417.3-170.9,418.7-181,418.7z M-181,393.7c-20.8,0-32,6-32,8.5s11.2,8.5,32,8.5s32-6,32-8.5S-160.2,393.7-181,393.7z"/>
		</g>
		<g>
			<rect x="-207" y="410.9" class="st1" width="4" height="17.6"/>
		</g>
		<g>
			<rect x="-195" y="412.4" class="st1" width="4" height="17.6"/>
		</g>
		<g>
			<rect x="-183" y="412.4" class="st1" width="4" height="17.6"/>
		</g>
		<g>
			<rect x="-171" y="412.4" class="st1" width="4" height="19.1"/>
		</g>
		<g>
			<rect x="-159" y="410.9" class="st1" width="4" height="19.1"/>
		</g>
		<g>
			<line class="st3" x1="-217" y1="419.4" x2="-217" y2="402.2"/>
			<rect x="-221" y="402.2" class="st1" width="8" height="17.2"/>
		</g>
		<g class="st4">
			<ellipse class="st1" cx="-185" cy="410.2" rx="36" ry="12.5"/>
		</g>
	</g>
	<g>
		<g>
			<path class="st0" d="M-205,403.4c0,6.9,16.1,12.5,36,12.5s36-5.6,36-12.5v-17.2"/>
			<path class="st1" d="M-169,419.9c-10.1,0-19.6-1.4-26.8-3.9c-10.9-3.7-13.2-8.9-13.2-12.6h8c0,2.5,11.2,8.5,32,8.5s32-6,32-8.5
				v-17.2h8v17.2c0,3.7-2.3,8.8-13.2,12.6C-149.4,418.6-158.9,419.9-169,419.9z"/>
		</g>
		<g>
			<path class="st2" d="M-205,403.4"/>
		</g>
		<g>
			<ellipse class="st0" cx="-169" cy="386.2" rx="36" ry="12.5"/>
			<path class="st1" d="M-169,402.7c-10.1,0-19.6-1.4-26.8-3.9c-10.9-3.8-13.2-8.9-13.2-12.6s2.3-8.8,13.2-12.6
				c7.2-2.5,16.7-3.9,26.8-3.9s19.6,1.4,26.8,3.9c10.9,3.8,13.2,9,13.2,12.6c0,3.7-2.3,8.8-13.2,12.6
				C-149.4,401.3-158.9,402.7-169,402.7z M-169,377.7c-20.8,0-32,6-32,8.5s11.2,8.5,32,8.5s32-6,32-8.5S-148.2,377.7-169,377.7z"/>
		</g>
		<g>
			<rect x="-195" y="394.9" class="st1" width="4" height="17.6"/>
		</g>
		<g>
			<rect x="-183" y="396.4" class="st1" width="4" height="17.6"/>
		</g>
		<g>
			<rect x="-171" y="396.4" class="st1" width="4" height="17.6"/>
		</g>
		<g>
			<rect x="-159" y="396.4" class="st1" width="4" height="19.1"/>
		</g>
		<g>
			<rect x="-147" y="394.9" class="st1" width="4" height="19.1"/>
		</g>
		<g>
			<line class="st3" x1="-205" y1="403.4" x2="-205" y2="386.2"/>
			<rect x="-209" y="386.2" class="st1" width="8" height="17.2"/>
		</g>
		<g class="st4">
			<ellipse class="st1" cx="-173" cy="394.2" rx="36" ry="12.5"/>
		</g>
	</g>
</g>
<g id="grid" class="st5">
	<line class="st6" x1="-233" y1="356.9" x2="-105" y2="484.9"/>
	<line class="st6" x1="-105" y1="356.9" x2="-233" y2="484.9"/>
	<circle class="st6" cx="-169" cy="420.9" r="52"/>
	<rect x="-233" y="356.9" class="st6" width="128" height="128"/>
	<line class="st6" x1="-117" y1="356.9" x2="-117" y2="484.9"/>
	<line class="st6" x1="-221" y1="484.9" x2="-221" y2="356.9"/>
	<line class="st6" x1="-105" y1="472.9" x2="-233" y2="472.9"/>
	<line class="st6" x1="-233" y1="368.9" x2="-105" y2="368.9"/>
	<line class="st6" x1="-169" y1="484.9" x2="-169" y2="356.9"/>
	<line class="st6" x1="-233" y1="420.9" x2="-105" y2="420.9"/>
</g>
</svg>
