<?xml version="1.0" encoding="utf-8"?>
<!-- Generator: Adobe Illustrator 19.0.0, SVG Export Plug-In . SVG Version: 6.00 Build 0)  -->
<svg version="1.1" id="Layer_1" xmlns="http://www.w3.org/2000/svg" xmlns:xlink="http://www.w3.org/1999/xlink" x="0px" y="0px"
	 viewBox="182 -60.1 960 960" style="enable-background:new 182 -60.1 960 960;" xml:space="preserve">
<style type="text/css">
	.st0{opacity:0.3;}
	.st1{fill:#0000FF;}
	.st2{fill:none;}
	.st3{display:none;}
	.st4{display:inline;}
	.st5{fill:none;stroke:#919191;stroke-width:3;stroke-miterlimit:10;}
</style>
<g id="Layer_1_1_">
	<g class="st0">
		<path class="st1" d="M965.7,336.1L660.8,206.3c-17.9-7.6-47.2-7.6-65.2,0L290.9,336.1c-17.9,7.6-19.5,20.1-1.6,27.8l169.2,72.7
			v140.1c0,46.9,76.1,85,170,85s170-38.1,170-85v-143l165.6-69.8C982,356.2,983.6,343.7,965.7,336.1z"/>
	</g>
	<path class="st2" d="M929.5,461.2c-7.9,0-14,6.4-14,14.6v94.5h28v-94.5C943.5,467.6,937.4,461.2,929.5,461.2z"/>
	<path class="st1" d="M1027.8,280.8l-370-157.5c-5.3-2.3-11.3-2.3-16.6,0l-370,157.5c-7.8,3.3-12.9,11-12.9,19.6
		c0,8.5,5.1,16.2,12.9,19.5l179.3,76.3V527c0,60.6,82.5,106.2,191.5,106.2S833.5,587.5,833.5,527V402.6l82.1-35l-0.6,67.8
		c-16.2,6-27.6,21.8-27.6,40.3v109.4c0,7.8,6,14.2,13.8,14.2H958c7.8,0,13.5-6.3,13.5-14.2V475.8c0-18.7-11.6-34.7-28.1-40.5
		l0.7-79.7l83.7-35.6c7.8-3.3,12.9-11,12.9-19.5C1040.7,291.8,1035.6,284.1,1027.8,280.8z M943.5,475.8v94.5h-28v-94.5
		c0-8.2,6.1-14.6,14-14.6C937.4,461.2,943.5,467.6,943.5,475.8z M918.8,320.1l-85.3-10.6l-162.6-20.2l-23.3-2.9
		c-3.8-0.5-7.5,0.7-10.4,2.9c-2.9,2.2-4.9,5.6-5.4,9.5c-0.5,4.3,0.9,8.5,3.7,11.5c2.2,2.4,5.2,4.1,8.6,4.5l130.8,16.5l15.6,2l22,2.8
		l21,2.6l32.2,4.1l-32.2,13.7l-21,8.9l-22,9.4l-141,60l-156-66.4l-21-8.9l-22-9.4l-116.7-49.7L649.5,166l315.7,134.4L918.8,320.1z
		 M790.5,527c0,30.1-63.4,63.7-148.5,63.7S493.5,557,493.5,527V414.5l147.7,62.9c2.7,1.1,5.5,1.7,8.3,1.7s5.7-0.6,8.3-1.7
		l132.7-56.5V527z"/>
</g>
<g id="grid_1_" class="st3">
	<g id="grid" class="st4">
		<line class="st5" x1="364" y1="-120.2" x2="1324" y2="839.8"/>
		<line class="st5" x1="1324" y1="-120.2" x2="364" y2="839.8"/>
		<circle class="st5" cx="844" cy="359.8" r="390"/>
		<rect x="364" y="-120.2" class="st5" width="960" height="960"/>
		<line class="st5" x1="1234" y1="-120.2" x2="1234" y2="839.8"/>
		<line class="st5" x1="454" y1="839.8" x2="454" y2="-120.2"/>
		<line class="st5" x1="1324" y1="749.8" x2="364" y2="749.8"/>
		<line class="st5" x1="364" y1="-30.2" x2="1324" y2="-30.2"/>
		<line class="st5" x1="844" y1="839.8" x2="844" y2="-120.2"/>
		<line class="st5" x1="364" y1="359.8" x2="1324" y2="359.8"/>
	</g>
</g>
</svg>
