<?xml version="1.0" encoding="utf-8"?>
<!-- Generator: Adobe Illustrator 19.0.0, SVG Export Plug-In . SVG Version: 6.00 Build 0)  -->
<svg version="1.1" id="Layer_1" xmlns="http://www.w3.org/2000/svg" xmlns:xlink="http://www.w3.org/1999/xlink" x="0px" y="0px"
	 viewBox="-233 356.9 128 128" style="enable-background:new -233 356.9 128 128;" xml:space="preserve">
<style type="text/css">
	.st0{fill:#0000FF;}
	.st1{fill:#FFFFFF;}
	.st2{display:none;}
	.st3{display:inline;fill:none;stroke:#919191;stroke-width:0.25;stroke-miterlimit:10;}
</style>
<g id="icon">
	<g>
		<g>
			<g>
				<rect x="-208.7" y="404.9" class="st0" width="8" height="44"/>
			</g>
			<g>
				<path class="st1" d="M-202.7,406.9v40h-4v-40H-202.7 M-198.7,402.9h-12v48h12V402.9L-198.7,402.9z"/>
			</g>
		</g>
		<g>
			<g>
				<rect x="-184.7" y="404.9" class="st0" width="8" height="44"/>
			</g>
			<g>
				<path class="st1" d="M-178.7,406.9v40h-4v-40H-178.7 M-174.7,402.9h-12v48h12V402.9L-174.7,402.9z"/>
			</g>
		</g>
		<g>
			<g>
				<rect x="-156.7" y="404.9" class="st0" width="8" height="44"/>
			</g>
			<g>
				<path class="st1" d="M-150.7,406.9v40h-4v-40H-150.7 M-146.7,402.9h-12v48h12V402.9L-146.7,402.9z"/>
			</g>
		</g>
		<g>
			<g>
				<rect x="-132.7" y="404.9" class="st0" width="8" height="44"/>
			</g>
			<g>
				<path class="st1" d="M-126.7,406.9v40h-4v-40H-126.7 M-122.7,402.9h-12v48h12V402.9L-122.7,402.9z"/>
			</g>
		</g>
		<g>
			<rect x="-218.7" y="450.9" class="st0" width="104" height="16"/>
			<path class="st1" d="M-114.7,470.9h-104c-2.2,0-4-1.8-4-4v-16c0-2.2,1.8-4,4-4h104c2.2,0,4,1.8,4,4v16
				C-110.7,469.1-112.5,470.9-114.7,470.9z M-214.7,462.9h96v-8h-96V462.9z"/>
		</g>
		<g>
			<g>
				<path class="st0" d="M-210.7,412.9c-1.1,0-2-0.9-2-2v-8c0-1.1,0.9-2,2-2h12c1.1,0,2,0.9,2,2v8c0,1.1-0.9,2-2,2H-210.7z"/>
			</g>
			<g>
				<path class="st1" d="M-198.7,402.9v8h-12v-8H-198.7 M-198.7,398.9h-12c-2.2,0-4,1.8-4,4v8c0,2.2,1.8,4,4,4h12c2.2,0,4-1.8,4-4
					v-8C-194.7,400.7-196.5,398.9-198.7,398.9L-198.7,398.9z"/>
			</g>
		</g>
		<g>
			<g>
				<path class="st0" d="M-186.7,412.9c-1.1,0-2-0.9-2-2v-8c0-1.1,0.9-2,2-2h12c1.1,0,2,0.9,2,2v8c0,1.1-0.9,2-2,2H-186.7z"/>
			</g>
			<g>
				<path class="st1" d="M-174.7,402.9v8h-12v-8H-174.7 M-174.7,398.9h-12c-2.2,0-4,1.8-4,4v8c0,2.2,1.8,4,4,4h12c2.2,0,4-1.8,4-4
					v-8C-170.7,400.7-172.5,398.9-174.7,398.9L-174.7,398.9z"/>
			</g>
		</g>
		<g>
			<g>
				<path class="st0" d="M-158.7,412.9c-1.1,0-2-0.9-2-2v-8c0-1.1,0.9-2,2-2h12c1.1,0,2,0.9,2,2v8c0,1.1-0.9,2-2,2H-158.7z"/>
			</g>
			<g>
				<path class="st1" d="M-146.7,402.9v8h-12v-8H-146.7 M-146.7,398.9h-12c-2.2,0-4,1.8-4,4v8c0,2.2,1.8,4,4,4h12c2.2,0,4-1.8,4-4
					v-8C-142.7,400.7-144.5,398.9-146.7,398.9L-146.7,398.9z"/>
			</g>
		</g>
		<g>
			<g>
				<path class="st0" d="M-134.7,412.9c-1.1,0-2-0.9-2-2v-8c0-1.1,0.9-2,2-2h12c1.1,0,2,0.9,2,2v8c0,1.1-0.9,2-2,2H-134.7z"/>
			</g>
			<g>
				<path class="st1" d="M-122.7,402.9v8h-12v-8H-122.7 M-122.7,398.9h-12c-2.2,0-4,1.8-4,4v8c0,2.2,1.8,4,4,4h12c2.2,0,4-1.8,4-4
					v-8C-118.7,400.7-120.5,398.9-122.7,398.9L-122.7,398.9z"/>
			</g>
		</g>
		<g>
			<polygon class="st0" points="-166.7,374.9 -214.7,392.4 -214.7,402.9 -118.7,402.9 -118.7,392.4 			"/>
			<path class="st1" d="M-118.7,406.9h-96c-2.2,0-4-1.8-4-4v-10.5c0-1.7,1.1-3.2,2.6-3.8l48-17.5c0.9-0.3,1.9-0.3,2.7,0l48,17.5
				c1.6,0.6,2.6,2.1,2.6,3.8v10.5C-114.7,405.1-116.5,406.9-118.7,406.9z M-210.7,398.9h88v-3.7l-44-16l-44,16V398.9z"/>
		</g>
	</g>
</g>
<g id="grid" class="st2">
	<line class="st3" x1="-932" y1="1427.6" x2="-804" y2="1555.6"/>
	<line class="st3" x1="-804" y1="1427.6" x2="-932" y2="1555.6"/>
	<circle class="st3" cx="-868" cy="1491.6" r="52"/>
	<rect x="-932" y="1427.6" class="st3" width="128" height="128"/>
	<line class="st3" x1="-816" y1="1427.6" x2="-816" y2="1555.6"/>
	<line class="st3" x1="-920" y1="1555.6" x2="-920" y2="1427.6"/>
	<line class="st3" x1="-804" y1="1543.6" x2="-932" y2="1543.6"/>
	<line class="st3" x1="-932" y1="1439.6" x2="-804" y2="1439.6"/>
	<line class="st3" x1="-868" y1="1555.6" x2="-868" y2="1427.6"/>
	<line class="st3" x1="-932" y1="1491.6" x2="-804" y2="1491.6"/>
</g>
</svg>
