<?xml version="1.0" encoding="utf-8"?>
<!-- Generator: Adobe Illustrator 19.0.0, SVG Export Plug-In . SVG Version: 6.00 Build 0)  -->
<svg version="1.1" id="Layer_1" xmlns="http://www.w3.org/2000/svg" xmlns:xlink="http://www.w3.org/1999/xlink" x="0px" y="0px"
	 viewBox="-233 356.9 128 128" style="enable-background:new -233 356.9 128 128;" xml:space="preserve">
<style type="text/css">
	.st0{display:none;}
	.st1{display:inline;fill:none;stroke:#919191;stroke-width:0.25;stroke-miterlimit:10;}
	.st2{fill:#22B968;}
	.st3{fill:#FFFFFF;}
	.st4{fill:#FFFFFF;stroke:#0000FF;stroke-width:8;stroke-miterlimit:10;}
	.st5{fill:none;}
</style>
<g id="grid" class="st0">
	<line class="st1" x1="-1165" y1="1784.5" x2="-1037" y2="1912.5"/>
	<line class="st1" x1="-1037" y1="1784.5" x2="-1165" y2="1912.5"/>
	<circle class="st1" cx="-1101" cy="1848.5" r="52"/>
	<rect x="-1165" y="1784.5" class="st1" width="128" height="128"/>
	<line class="st1" x1="-1049" y1="1784.5" x2="-1049" y2="1912.5"/>
	<line class="st1" x1="-1153" y1="1912.5" x2="-1153" y2="1784.5"/>
	<line class="st1" x1="-1037" y1="1900.5" x2="-1165" y2="1900.5"/>
	<line class="st1" x1="-1165" y1="1796.5" x2="-1037" y2="1796.5"/>
	<line class="st1" x1="-1101" y1="1912.5" x2="-1101" y2="1784.5"/>
	<line class="st1" x1="-1165" y1="1848.5" x2="-1037" y2="1848.5"/>
</g>
<g id="icon_1_">
	<g>
		<g>
			<path class="st2" d="M-193,449.8c0,2.1,1.4,9.7,4,11.4c6,4,18.1,6.8,32,6.8c19.9,0,36-5.6,36-12.5v-17.2"/>
			<path class="st3" d="M-157,472c-10.1,0-19.6-1.4-26.8-3.9c-10.9-3.8-13.2-9-13.2-12.6h8c0,2.5,11.2,8.5,32,8.5s32-6,32-8.5v-17.2
				h8v17.2c0,3.7-2.3,8.8-13.2,12.6C-137.4,470.7-146.9,472-157,472z"/>
		</g>
		<g>
			<path class="st4" d="M-193,455.5"/>
		</g>
		<g>
			<ellipse class="st2" cx="-157" cy="438.3" rx="36" ry="12.5"/>
			<path class="st3" d="M-157,454.8c-10.1,0-19.6-1.4-26.8-3.9c-10.9-3.8-13.2-8.9-13.2-12.6s2.3-8.8,13.2-12.6
				c7.2-2.5,16.7-3.9,26.8-3.9s19.6,1.4,26.8,3.9c10.9,3.8,13.2,9,13.2,12.6c0,3.7-2.3,8.8-13.2,12.6
				C-137.4,453.4-146.9,454.8-157,454.8z M-157,429.8c-20.8,0-32,6-32,8.5s11.2,8.5,32,8.5s32-6,32-8.5S-136.2,429.8-157,429.8z"/>
		</g>
		<g>
			<rect x="-183" y="447" class="st3" width="4" height="17.6"/>
		</g>
		<g>
			<rect x="-171" y="448.5" class="st3" width="4" height="17.6"/>
		</g>
		<g>
			<rect x="-159" y="448.5" class="st3" width="4" height="17.6"/>
		</g>
		<g>
			<rect x="-147" y="448.5" class="st3" width="4" height="19.1"/>
		</g>
		<g>
			<rect x="-135" y="447" class="st3" width="4" height="19.1"/>
		</g>
		<g>
			<line class="st5" x1="-193" y1="455.5" x2="-193" y2="438.3"/>
			<rect x="-197" y="438.3" class="st3" width="8" height="17.2"/>
		</g>
	</g>
	<g>
		<g>
			<path class="st2" d="M-204.2,432c0,2.2,0.8,9.5,3.6,11.3c6.1,3.9,18,6.5,31.7,6.5c19.9,0,36-5.6,36-12.5V420"/>
			<path class="st3" d="M-169,453.8c-10.1,0-19.6-1.4-26.8-3.9c-10.9-3.8-13.2-9-13.2-12.6h8c0,2.5,11.2,8.5,32,8.5s32-6,32-8.5V420
				h8v17.2c0,3.7-2.3,8.8-13.2,12.6C-149.4,452.4-158.9,453.8-169,453.8z"/>
		</g>
		<g>
			<path class="st4" d="M-205,437.3"/>
		</g>
		<g>
			<ellipse class="st2" cx="-169" cy="420" rx="36" ry="12.5"/>
			<path class="st3" d="M-169,436.6c-10.1,0-19.6-1.4-26.8-3.9c-10.9-3.8-13.2-9-13.2-12.7s2.3-8.8,13.2-12.6
				c7.2-2.5,16.7-3.9,26.8-3.9s19.6,1.4,26.8,3.9c10.9,3.8,13.2,9,13.2,12.6c0,3.7-2.3,8.8-13.2,12.6
				C-149.4,435.2-158.9,436.6-169,436.6z M-169,411.5c-20.8,0-32,6-32,8.5s11.2,8.5,32,8.5s32-6,32-8.5S-148.2,411.5-169,411.5z"/>
		</g>
		<g>
			<rect x="-195" y="428.7" class="st3" width="4" height="17.6"/>
		</g>
		<g>
			<rect x="-183" y="430.2" class="st3" width="4" height="17.6"/>
		</g>
		<g>
			<rect x="-171" y="430.2" class="st3" width="4" height="17.6"/>
		</g>
		<g>
			<rect x="-159" y="430.2" class="st3" width="4" height="19.1"/>
		</g>
		<g>
			<rect x="-147" y="428.7" class="st3" width="4" height="19.1"/>
		</g>
		<g>
			<line class="st5" x1="-205" y1="437.3" x2="-205" y2="420"/>
			<rect x="-209" y="421" class="st3" width="8" height="17.2"/>
		</g>
	</g>
	<g>
		<g>
			<path class="st2" d="M-217,412.6c0,2.3,1.8,11.4,4.9,13.2c6.2,3.7,17.8,6.2,31.1,6.2c19.9,0,36-5.6,36-12.5v-17.2"/>
			<path class="st3" d="M-181,436c-10.1,0-19.6-1.4-26.8-3.9c-10.9-3.7-13.2-8.9-13.2-12.6h8c0,2.5,11.2,8.5,32,8.5s32-6,32-8.5
				v-17.2h8v17.2c0,3.7-2.3,8.8-13.2,12.6C-161.4,434.7-170.9,436-181,436z"/>
		</g>
		<g>
			<path class="st4" d="M-217,419.5"/>
		</g>
		<g>
			<ellipse class="st2" cx="-181" cy="402.3" rx="36" ry="12.5"/>
			<path class="st3" d="M-181,418.8c-10.1,0-19.6-1.4-26.8-3.9c-10.9-3.8-13.2-8.9-13.2-12.6s2.3-8.8,13.2-12.6
				c7.2-2.5,16.7-3.9,26.8-3.9s19.6,1.4,26.8,3.9c10.9,3.8,13.2,9,13.2,12.6c0,3.7-2.3,8.8-13.2,12.6
				C-161.4,417.4-170.9,418.8-181,418.8z M-181,393.8c-20.8,0-32,6-32,8.5s11.2,8.5,32,8.5s32-6,32-8.5S-160.2,393.8-181,393.8z"/>
		</g>
		<g>
			<rect x="-207" y="411" class="st3" width="4" height="17.6"/>
		</g>
		<g>
			<rect x="-195" y="412.5" class="st3" width="4" height="17.6"/>
		</g>
		<g>
			<rect x="-183" y="412.5" class="st3" width="4" height="17.6"/>
		</g>
		<g>
			<rect x="-171" y="412.5" class="st3" width="4" height="19.1"/>
		</g>
		<g>
			<rect x="-159" y="411" class="st3" width="4" height="19.1"/>
		</g>
		<g>
			<line class="st5" x1="-217" y1="419.5" x2="-217" y2="402.3"/>
			<rect x="-221" y="402.3" class="st3" width="8" height="17.2"/>
		</g>
	</g>
	<g>
		<g>
			<path class="st2" d="M-205,403.5c0,6.9,16.1,12.5,36,12.5s36-5.6,36-12.5v-17.2"/>
			<path class="st3" d="M-169,420c-10.1,0-19.6-1.4-26.8-3.9c-10.9-3.7-13.2-8.9-13.2-12.6h8c0,2.5,11.2,8.5,32,8.5s32-6,32-8.5
				v-17.2h8v17.2c0,3.7-2.3,8.8-13.2,12.6C-149.4,418.7-158.9,420-169,420z"/>
		</g>
		<g>
			<path class="st4" d="M-205,403.5"/>
		</g>
		<g>
			<ellipse class="st2" cx="-169" cy="386.3" rx="36" ry="12.5"/>
			<path class="st3" d="M-169,402.8c-10.1,0-19.6-1.4-26.8-3.9c-10.9-3.8-13.2-8.9-13.2-12.6s2.3-8.8,13.2-12.6
				c7.2-2.5,16.7-3.9,26.8-3.9s19.6,1.4,26.8,3.9c10.9,3.8,13.2,9,13.2,12.6c0,3.7-2.3,8.8-13.2,12.6
				C-149.4,401.4-158.9,402.8-169,402.8z M-169,377.8c-20.8,0-32,6-32,8.5s11.2,8.5,32,8.5s32-6,32-8.5S-148.2,377.8-169,377.8z"/>
		</g>
		<g>
			<rect x="-195" y="395" class="st3" width="4" height="17.6"/>
		</g>
		<g>
			<rect x="-183" y="396.5" class="st3" width="4" height="17.6"/>
		</g>
		<g>
			<rect x="-171" y="396.5" class="st3" width="4" height="17.6"/>
		</g>
		<g>
			<rect x="-159" y="396.5" class="st3" width="4" height="19.1"/>
		</g>
		<g>
			<rect x="-147" y="395" class="st3" width="4" height="19.1"/>
		</g>
		<g>
			<rect x="-209" y="386.3" class="st3" width="8" height="17.2"/>
		</g>
	</g>
</g>
</svg>
