<?xml version="1.0" encoding="utf-8"?>
<!-- Generator: Adobe Illustrator 19.0.0, SVG Export Plug-In . SVG Version: 6.00 Build 0)  -->
<svg version="1.1" id="Layer_1" xmlns="http://www.w3.org/2000/svg" xmlns:xlink="http://www.w3.org/1999/xlink" x="0px" y="0px"
	 viewBox="182 -60.1 960 960" style="enable-background:new 182 -60.1 960 960;" xml:space="preserve">
<style type="text/css">
	.st0{opacity:0.3;}
	.st1{fill:#0000FF;}
	.st2{fill:none;}
	.st3{display:none;}
	.st4{display:inline;}
	.st5{fill:none;stroke:#919191;stroke-width:3;stroke-miterlimit:10;}
</style>
<g id="Layer_1_1_">
	<g class="st0">
		<path class="st1" d="M977.7,396.2L672.8,266.4c-17.9-7.6-47.2-7.6-65.2,0L302.9,396.2c-17.9,7.6-19.5,20.1-1.6,27.8l169.2,72.7
			v140.1c0,46.9,76.1,85,170,85c93.9,0,170-38.1,170-85v-143l165.6-69.8C994,416.3,995.6,403.8,977.7,396.2z"/>
	</g>
	<path class="st2" d="M941.5,521.3c-7.9,0-14,6.4-14,14.6v94.5h28v-94.5C955.5,527.7,949.4,521.3,941.5,521.3z"/>
	<path class="st1" d="M1039.8,340.9l-370-157.5c-5.3-2.3-11.3-2.3-16.6,0l-370,157.5c-7.8,3.3-12.9,11-12.9,19.6
		c0,8.5,5.1,16.2,12.9,19.5l179.3,76.3v130.8c0,60.6,82.5,106.2,191.5,106.2s191.5-45.7,191.5-106.2V462.7l82.1-35l-0.6,67.8
		c-16.2,6-27.6,21.8-27.6,40.3v109.4c0,7.8,6,14.2,13.8,14.2H970c7.8,0,13.5-6.3,13.5-14.2V535.9c0-18.7-11.6-34.7-28.1-40.5
		l0.7-79.7l83.7-35.6c7.8-3.3,12.9-11,12.9-19.5C1052.7,351.9,1047.6,344.2,1039.8,340.9z M955.5,535.9v94.5h-28v-94.5
		c0-8.2,6.1-14.6,14-14.6C949.4,521.3,955.5,527.7,955.5,535.9z M930.8,380.2l-85.3-10.6l-162.6-20.2l-23.3-2.9
		c-3.8-0.5-7.5,0.7-10.4,2.9c-2.9,2.2-4.9,5.6-5.4,9.5c-0.5,4.3,0.9,8.5,3.7,11.5c2.2,2.4,5.2,4.1,8.6,4.5l130.8,16.5l15.6,2l22,2.8
		l21,2.6l32.2,4.1l-32.2,13.7l-21,8.9l-22,9.4l-141,60l-156-66.4l-21-8.9l-22-9.4l-116.7-49.7l315.7-134.4l315.7,134.4L930.8,380.2z
		 M802.5,587.1c0,30.1-63.4,63.7-148.5,63.7c-85.1,0-148.5-33.7-148.5-63.7V474.6l147.7,62.9c2.7,1.1,5.5,1.7,8.3,1.7
		s5.7-0.6,8.3-1.7L802.5,481V587.1z"/>
</g>
<g id="grid_1_" class="st3">
	<g id="grid" class="st4">
		<line class="st5" x1="182" y1="-60.1" x2="1142" y2="899.9"/>
		<line class="st5" x1="1142" y1="-60.1" x2="182" y2="899.9"/>
		<circle class="st5" cx="662" cy="419.9" r="390"/>
		<rect x="182" y="-60.1" class="st5" width="960" height="960"/>
		<line class="st5" x1="1052" y1="-60.1" x2="1052" y2="899.9"/>
		<line class="st5" x1="272" y1="899.9" x2="272" y2="-60.1"/>
		<line class="st5" x1="1142" y1="809.9" x2="182" y2="809.9"/>
		<line class="st5" x1="182" y1="29.9" x2="1142" y2="29.9"/>
		<line class="st5" x1="662" y1="899.9" x2="662" y2="-60.1"/>
		<line class="st5" x1="182" y1="419.9" x2="1142" y2="419.9"/>
	</g>
</g>
</svg>
