<?xml version="1.0" encoding="utf-8"?>
<!-- Generator: Adobe Illustrator 19.0.0, SVG Export Plug-In . SVG Version: 6.00 Build 0)  -->
<svg version="1.1" id="Layer_1" xmlns="http://www.w3.org/2000/svg" xmlns:xlink="http://www.w3.org/1999/xlink" x="0px" y="0px"
	 viewBox="-233 356.9 128 128" style="enable-background:new -233 356.9 128 128;" xml:space="preserve">
<style type="text/css">
	.st0{opacity:0.3;}
	.st1{fill:#0000FF;}
	.st2{display:none;}
	.st3{display:inline;fill:none;stroke:#919191;stroke-width:0.25;stroke-miterlimit:10;}
</style>
<g id="icon">
	<g class="st0">
		<path class="st1" d="M-176,383.6c-24.6,0-48.1,21.6-47,47c1.1,25.5,20.6,47,47,47c24.6,0,48.1-21.6,47-47
			C-130.2,405.1-149.7,383.6-176,383.6z"/>
	</g>
	<g>
		<path class="st1" d="M-169,377.6c24.3,0,44,19.7,44,44s-19.7,44-44,44s-44-19.7-44-44C-213,397.3-193.3,377.6-169,377.6
			 M-169,369.6c-28.7,0-52,23.3-52,52c0,28.7,23.3,52,52,52s52-23.3,52-52C-117,392.9-140.3,369.6-169,369.6L-169,369.6z"/>
	</g>
	<g>
		<path class="st1" d="M-169,382.6L-169,382.6L-169,382.6c-2,0-3.6,1.6-3.6,3.5s1.6,3.5,3.5,3.5l0,0l0,0l0,0c0.1,0,0.2,0,0.2,0
			c0.1,0,0.2,0,0.2,0l0,0l0,0l0,0c0,0,0,0,0.1,0c1.9,0,3.5-1.5,3.5-3.4s-1.5-3.5-3.4-3.6h-0.1c0,0,0,0-0.1,0c-0.1,0-0.2,0-0.2,0
			C-168.8,382.6-168.9,382.6-169,382.6L-169,382.6z M-189.8,389.3c-0.7,0-1.4,0.2-2.1,0.7h-0.1c-1.6,1.1-1.9,3.3-0.8,4.9
			c0.7,0.9,1.8,1.4,2.8,1.4c0.7,0,1.4-0.2,2.1-0.7l0,0l0,0c1.6-1.1,1.9-3.3,0.8-4.9C-187.7,389.8-188.7,389.3-189.8,389.3
			L-189.8,389.3z M-202.7,407c-1.5,0-2.8,0.9-3.3,2.4v0.1c-0.6,1.8,0.4,3.8,2.2,4.4c0.4,0.1,0.7,0.2,1.1,0.2c1.5,0,2.8-0.9,3.3-2.4
			l0,0l0,0c0.6-1.8-0.4-3.8-2.2-4.4C-202,407-202.4,407-202.7,407L-202.7,407z M-202.8,428.9c-0.4,0-0.7,0.1-1.1,0.2
			c-1.8,0.6-2.9,2.6-2.3,4.4v0.1c0.5,1.5,1.8,2.4,3.3,2.4c0.4,0,0.7-0.1,1.1-0.2c1.8-0.6,2.9-2.6,2.3-4.4l0,0l0,0
			C-200,429.8-201.3,428.9-202.8,428.9L-202.8,428.9z M-190.1,446.6c-1.1,0-2.1,0.5-2.8,1.4c-1.1,1.6-0.8,3.7,0.7,4.9h0.1
			c0.6,0.5,1.4,0.7,2.1,0.7c1.1,0,2.1-0.5,2.8-1.4c1.1-1.6,0.8-3.7-0.7-4.9l0,0l0,0C-188.6,446.9-189.3,446.6-190.1,446.6
			L-190.1,446.6z M-169.3,453.6c-1.9,0-3.5,1.6-3.5,3.5s1.5,3.5,3.5,3.5h0.1l0,0c1.9,0,3.5-1.6,3.5-3.5S-167.3,453.6-169.3,453.6
			C-169.2,453.6-169.2,453.6-169.3,453.6L-169.3,453.6L-169.3,453.6L-169.3,453.6L-169.3,453.6L-169.3,453.6z M-148.4,447
			c-0.7,0-1.4,0.2-2,0.7l0,0l0,0l0,0l0,0c-1.6,1.1-1.9,3.3-0.8,4.9c0.7,1,1.8,1.5,2.9,1.5c0.7,0,1.4-0.2,2-0.7h0.1
			c1.6-1.1,1.9-3.3,0.8-4.9C-146.2,447.5-147.3,447-148.4,447L-148.4,447z M-135.3,429.4c-1.5,0-2.8,0.9-3.3,2.4l0,0l0,0
			c-0.6,1.8,0.4,3.8,2.2,4.4c0.4,0.1,0.7,0.2,1.1,0.2c1.5,0,2.8-0.9,3.3-2.4v-0.1c0.6-1.8-0.4-3.8-2.2-4.4
			C-134.6,429.4-135,429.4-135.3,429.4L-135.3,429.4z M-135.1,407.5c-0.3,0-0.7,0.1-1,0.2c-1.8,0.6-2.9,2.5-2.3,4.4c0,0,0,0,0,0.1
			c0.5,1.5,1.9,2.5,3.3,2.5c0.3,0,0.7-0.1,1-0.2c1.8-0.6,2.9-2.5,2.3-4.4V410C-132.2,408.4-133.6,407.5-135.1,407.5L-135.1,407.5z
			 M-147.7,389.6c-1.1,0-2.1,0.5-2.8,1.4c-1.2,1.5-0.8,3.7,0.7,4.9l0,0l0,0c0.6,0.5,1.4,0.7,2.1,0.7c1.1,0,2.1-0.5,2.8-1.4
			c1.2-1.5,0.8-3.7-0.7-4.9h-0.1C-146.3,389.9-147,389.6-147.7,389.6L-147.7,389.6z"/>
	</g>
	<g>
		<path class="st1" d="M-181,437.6c-1.5,0-2.9-0.8-3.6-2.2c-1-2-0.2-4.4,1.8-5.4l13.8-6.9v-17.5c0-2.2,1.8-4,4-4s4,1.8,4,4v20
			c0,1.5-0.9,2.9-2.2,3.6l-16,8C-179.8,437.4-180.4,437.6-181,437.6z"/>
	</g>
</g>
<g id="grid" class="st2">
	<line class="st3" x1="-233" y1="356.9" x2="-105" y2="484.9"/>
	<line class="st3" x1="-105" y1="356.9" x2="-233" y2="484.9"/>
	<circle class="st3" cx="-169" cy="420.9" r="52"/>
	<rect x="-233" y="356.9" class="st3" width="128" height="128"/>
	<line class="st3" x1="-117" y1="356.9" x2="-117" y2="484.9"/>
	<line class="st3" x1="-221" y1="484.9" x2="-221" y2="356.9"/>
	<line class="st3" x1="-105" y1="472.9" x2="-233" y2="472.9"/>
	<line class="st3" x1="-233" y1="368.9" x2="-105" y2="368.9"/>
	<line class="st3" x1="-169" y1="484.9" x2="-169" y2="356.9"/>
	<line class="st3" x1="-233" y1="420.9" x2="-105" y2="420.9"/>
</g>
</svg>
