<?xml version="1.0" encoding="utf-8"?>
<!-- Generator: Adobe Illustrator 19.0.0, SVG Export Plug-In . SVG Version: 6.00 Build 0)  -->
<svg version="1.1" id="Layer_1" xmlns="http://www.w3.org/2000/svg" xmlns:xlink="http://www.w3.org/1999/xlink" x="0px" y="0px"
	 viewBox="-233 356.9 128 128" style="enable-background:new -233 356.9 128 128;" xml:space="preserve">
<style type="text/css">
	.st0{opacity:0.3;}
	.st1{fill:#0000FF;}
	.st2{display:none;}
	.st3{display:inline;fill:none;stroke:#919191;stroke-width:0.25;stroke-miterlimit:10;}
</style>
<g id="icon">
	<g class="st0">
		<path class="st1" d="M-175.3,380.9c-24.6,0-48.1,21.6-47,47c1.1,25.5,20.6,47,47,47c24.6,0,48.1-21.6,47-47
			C-129.5,402.4-149,380.9-175.3,380.9z"/>
	</g>
	<g>
		<path class="st1" d="M-168.3,374.9c24.3,0,44,19.7,44,44s-19.7,44-44,44s-44-19.7-44-44C-212.3,394.6-192.6,374.9-168.3,374.9
			 M-168.3,366.9c-28.7,0-52,23.3-52,52s23.3,52,52,52s52-23.3,52-52S-139.6,366.9-168.3,366.9L-168.3,366.9z"/>
	</g>
	<g>
		<path class="st1" d="M-168.3,379.9L-168.3,379.9L-168.3,379.9c-2,0-3.6,1.6-3.6,3.5s1.6,3.5,3.5,3.5l0,0l0,0l0,0
			c0.1,0,0.2,0,0.2,0c0.1,0,0.2,0,0.2,0l0,0l0,0l0,0c0,0,0,0,0.1,0c1.9,0,3.5-1.5,3.5-3.4s-1.5-3.5-3.4-3.6h-0.1c0,0,0,0-0.1,0
			S-168.2,379.9-168.3,379.9C-168.1,379.9-168.2,379.9-168.3,379.9L-168.3,379.9z M-189.1,386.6c-0.7,0-1.4,0.2-2.1,0.7h-0.1
			c-1.6,1.1-1.9,3.3-0.8,4.9c0.7,0.9,1.8,1.4,2.8,1.4c0.7,0,1.4-0.2,2.1-0.7l0,0l0,0c1.6-1.1,1.9-3.3,0.8-4.9
			C-187,387.1-188,386.6-189.1,386.6L-189.1,386.6z M-202,404.3c-1.5,0-2.8,0.9-3.3,2.4v0.1c-0.6,1.8,0.4,3.8,2.2,4.4
			c0.4,0.1,0.7,0.2,1.1,0.2c1.5,0,2.8-0.9,3.3-2.4l0,0l0,0c0.6-1.8-0.4-3.8-2.2-4.4C-201.3,404.3-201.7,404.3-202,404.3L-202,404.3z
			 M-202.1,426.2c-0.4,0-0.7,0.1-1.1,0.2c-1.8,0.6-2.9,2.6-2.3,4.4v0.1c0.5,1.5,1.8,2.4,3.3,2.4c0.4,0,0.7-0.1,1.1-0.2
			c1.8-0.6,2.9-2.6,2.3-4.4l0,0l0,0C-199.3,427.1-200.6,426.2-202.1,426.2L-202.1,426.2z M-189.4,443.9c-1.1,0-2.1,0.5-2.8,1.4
			c-1.1,1.6-0.8,3.7,0.7,4.9h0.1c0.6,0.5,1.4,0.7,2.1,0.7c1.1,0,2.1-0.5,2.8-1.4c1.1-1.6,0.8-3.7-0.7-4.9l0,0l0,0
			C-187.9,444.2-188.6,443.9-189.4,443.9L-189.4,443.9z M-168.6,450.9c-1.9,0-3.5,1.6-3.5,3.5s1.5,3.5,3.5,3.5h0.1l0,0
			c1.9,0,3.5-1.6,3.5-3.5S-166.6,450.9-168.6,450.9C-168.5,450.9-168.5,450.9-168.6,450.9L-168.6,450.9L-168.6,450.9L-168.6,450.9
			L-168.6,450.9L-168.6,450.9z M-147.7,444.3c-0.7,0-1.4,0.2-2,0.7l0,0l0,0l0,0l0,0c-1.6,1.1-1.9,3.3-0.8,4.9c0.7,1,1.8,1.5,2.9,1.5
			c0.7,0,1.4-0.2,2-0.7h0.1c1.6-1.1,1.9-3.3,0.8-4.9C-145.5,444.8-146.6,444.3-147.7,444.3L-147.7,444.3z M-134.6,426.7
			c-1.5,0-2.8,0.9-3.3,2.4l0,0l0,0c-0.6,1.8,0.4,3.8,2.2,4.4c0.4,0.1,0.7,0.2,1.1,0.2c1.5,0,2.8-0.9,3.3-2.4v-0.1
			c0.6-1.8-0.4-3.8-2.2-4.4C-133.9,426.7-134.3,426.7-134.6,426.7L-134.6,426.7z M-134.4,404.8c-0.3,0-0.7,0.1-1,0.2
			c-1.8,0.6-2.9,2.5-2.3,4.4c0,0,0,0,0,0.1c0.5,1.5,1.9,2.5,3.3,2.5c0.3,0,0.7-0.1,1-0.2c1.8-0.6,2.9-2.5,2.3-4.4v-0.1
			C-131.5,405.7-132.9,404.8-134.4,404.8L-134.4,404.8z M-147,386.9c-1.1,0-2.1,0.5-2.8,1.4c-1.2,1.5-0.8,3.7,0.7,4.9l0,0l0,0
			c0.6,0.5,1.4,0.7,2.1,0.7c1.1,0,2.1-0.5,2.8-1.4c1.2-1.5,0.8-3.7-0.7-4.9h-0.1C-145.6,387.2-146.3,386.9-147,386.9L-147,386.9z"/>
	</g>
	<g>
		<path class="st1" d="M-180.3,434.9c-1.5,0-2.9-0.8-3.6-2.2c-1-2-0.2-4.4,1.8-5.4l13.8-6.9v-17.5c0-2.2,1.8-4,4-4s4,1.8,4,4v20
			c0,1.5-0.9,2.9-2.2,3.6l-16,8C-179.1,434.7-179.7,434.9-180.3,434.9z"/>
	</g>
</g>
<g id="grid" class="st2">
	<line class="st3" x1="-466" y1="713.8" x2="-338" y2="841.8"/>
	<line class="st3" x1="-338" y1="713.8" x2="-466" y2="841.8"/>
	<circle class="st3" cx="-402" cy="777.8" r="52"/>
	<rect x="-466" y="713.8" class="st3" width="128" height="128"/>
	<line class="st3" x1="-350" y1="713.8" x2="-350" y2="841.8"/>
	<line class="st3" x1="-454" y1="841.8" x2="-454" y2="713.8"/>
	<line class="st3" x1="-338" y1="829.8" x2="-466" y2="829.8"/>
	<line class="st3" x1="-466" y1="725.8" x2="-338" y2="725.8"/>
	<line class="st3" x1="-402" y1="841.8" x2="-402" y2="713.8"/>
	<line class="st3" x1="-466" y1="777.8" x2="-338" y2="777.8"/>
</g>
</svg>
