<?xml version="1.0" encoding="utf-8"?>
<!-- Generator: Adobe Illustrator 19.0.0, SVG Export Plug-In . SVG Version: 6.00 Build 0)  -->
<svg version="1.1" id="Layer_1" xmlns="http://www.w3.org/2000/svg" xmlns:xlink="http://www.w3.org/1999/xlink" x="0px" y="0px"
	 viewBox="-233 356.9 128 128" style="enable-background:new -233 356.9 128 128;" xml:space="preserve">
<style type="text/css">
	.st0{fill:#FFFFFF;}
	.st1{fill:#0000FF;}
	.st2{opacity:0.3;fill:#0000FF;enable-background:new    ;}
	.st3{display:none;}
	.st4{display:inline;fill:none;stroke:#919191;stroke-width:0.25;stroke-miterlimit:10;}
</style>
<g id="icon">
	<g>
		<g>
			<path class="st0" d="M-153.7,400.9h-26.6c-3.7,0-6.7-3-6.7-6.7v-10.6c0-3.7,3-6.7,6.7-6.7h26.6c3.7,0,6.7,3,6.7,6.7v10.6
				C-147,397.9-150,400.9-153.7,400.9z"/>
			<path class="st1" d="M-153.7,404.9h-26.6c-5.9,0-10.7-4.8-10.7-10.7v-10.6c0-5.9,4.8-10.7,10.7-10.7h26.6
				c5.9,0,10.7,4.8,10.7,10.7v10.6C-143,400.1-147.8,404.9-153.7,404.9z M-180.3,380.9c-1.5,0-2.7,1.2-2.7,2.7v10.6
				c0,1.5,1.2,2.7,2.7,2.7h26.6c1.5,0,2.7-1.2,2.7-2.7v-10.6c0-1.5-1.2-2.7-2.7-2.7H-180.3z"/>
		</g>
		<g>
			<path class="st0" d="M-129.5,460.9h-75c-5.8,0-10.5-4.7-10.5-10.5v-47c0-5.8,4.7-10.5,10.5-10.5h74.9c5.8,0,10.5,4.7,10.5,10.5
				v46.9C-119,456.2-123.7,460.9-129.5,460.9z"/>
			<path class="st1" d="M-129.5,464.9h-75c-8,0-14.5-6.5-14.5-14.5v-47c0-8,6.5-14.5,14.5-14.5h74.9c8,0,14.5,6.5,14.5,14.5v46.9
				C-115,458.4-121.5,464.9-129.5,464.9z M-204.5,396.9c-3.6,0-6.5,2.9-6.5,6.5v46.9c0,3.6,2.9,6.5,6.5,6.5h74.9
				c3.6,0,6.5-2.9,6.5-6.5v-46.9c0-3.6-2.9-6.5-6.5-6.5H-204.5z"/>
		</g>
		<g>
			<path class="st1" d="M-141.3,428.9h-51.4c-4.6,0-8.9-1.8-12.2-5l-11.5-11.6l2.8-2.8L-202,421c2.5,2.5,5.8,3.9,9.3,3.9h51.4
				c3.5,0,6.9-1.4,9.3-3.9l11.5-11.5l2.8,2.8l-11.4,11.6C-132.4,427.1-136.7,428.9-141.3,428.9z"/>
		</g>
		<g>
			<path class="st0" d="M-165.1,434.9h-3.8c-2.6,0-4.6-2.1-4.6-4.6v-8.7c0-2.6,2.1-4.6,4.6-4.6h3.8c2.6,0,4.6,2.1,4.6,4.6v8.7
				C-160.5,432.8-162.5,434.9-165.1,434.9z"/>
			<path class="st1" d="M-165.1,436.9h-3.8c-3.7,0-6.6-3-6.6-6.6v-8.7c0-3.7,3-6.6,6.6-6.6h3.8c3.7,0,6.6,3,6.6,6.6v8.7
				C-158.5,433.9-161.4,436.9-165.1,436.9z M-168.9,418.9c-1.5,0-2.6,1.2-2.6,2.6v8.7c0,1.5,1.2,2.6,2.6,2.6h3.8
				c1.5,0,2.6-1.2,2.6-2.6v-8.7c0-1.5-1.2-2.6-2.6-2.6H-168.9z"/>
		</g>
		<path class="st2" d="M-137.5,468.9h-75c-5.8,0-10.5-4.7-10.5-10.5v-47c0-5.8,4.7-10.5,10.5-10.5h74.9c5.8,0,10.5,4.7,10.5,10.5
			v46.9C-127,464.2-131.7,468.9-137.5,468.9z"/>
	</g>
</g>
<g id="grid" class="st3">
	<line class="st4" x1="-233" y1="356.9" x2="-105" y2="484.9"/>
	<line class="st4" x1="-105" y1="356.9" x2="-233" y2="484.9"/>
	<circle class="st4" cx="-169" cy="420.9" r="52"/>
	<rect x="-233" y="356.9" class="st4" width="128" height="128"/>
	<line class="st4" x1="-117" y1="356.9" x2="-117" y2="484.9"/>
	<line class="st4" x1="-221" y1="484.9" x2="-221" y2="356.9"/>
	<line class="st4" x1="-105" y1="472.9" x2="-233" y2="472.9"/>
	<line class="st4" x1="-233" y1="368.9" x2="-105" y2="368.9"/>
	<line class="st4" x1="-169" y1="484.9" x2="-169" y2="356.9"/>
	<line class="st4" x1="-233" y1="420.9" x2="-105" y2="420.9"/>
</g>
</svg>
