<?xml version="1.0" encoding="utf-8"?>
<!-- Generator: Adobe Illustrator 19.0.0, SVG Export Plug-In . SVG Version: 6.00 Build 0)  -->
<svg version="1.1" id="Layer_1" xmlns="http://www.w3.org/2000/svg" xmlns:xlink="http://www.w3.org/1999/xlink" x="0px" y="0px"
	 viewBox="-233 356.9 128 128" style="enable-background:new -233 356.9 128 128;" xml:space="preserve">
<style type="text/css">
	.st0{fill:#0000FF;}
	.st1{fill:#FFFFFF;}
	.st2{display:none;}
	.st3{display:inline;fill:none;stroke:#919191;stroke-width:0.25;stroke-miterlimit:10;}
</style>
<g id="icon">
	<g>
		<g>
			<path class="st0" d="M-157.2,396h-26.6c-3.7,0-6.7-3-6.7-6.7v-10.6c0-3.7,3-6.7,6.7-6.7h26.6c3.7,0,6.7,3,6.7,6.7v10.6
				C-150.5,393-153.5,396-157.2,396z"/>
			<path class="st1" d="M-157.2,400h-26.6c-5.9,0-10.7-4.8-10.7-10.7v-10.6c0-5.9,4.8-10.7,10.7-10.7h26.6c5.9,0,10.7,4.8,10.7,10.7
				v10.6C-146.5,395.2-151.3,400-157.2,400z M-183.8,376c-1.5,0-2.7,1.2-2.7,2.7v10.6c0,1.5,1.2,2.7,2.7,2.7h26.6
				c1.5,0,2.7-1.2,2.7-2.7v-10.6c0-1.5-1.2-2.7-2.7-2.7H-183.8z"/>
		</g>
		<g>
			<path class="st0" d="M-133,456h-75c-5.8,0-10.5-4.7-10.5-10.5v-47c0-5.8,4.7-10.5,10.5-10.5h74.9c5.8,0,10.5,4.7,10.5,10.5v46.9
				C-122.5,451.3-127.2,456-133,456z"/>
			<path class="st1" d="M-133,460h-75c-8,0-14.5-6.5-14.5-14.5v-47c0-8,6.5-14.5,14.5-14.5h74.9c8,0,14.5,6.5,14.5,14.5v46.9
				C-118.5,453.5-125,460-133,460z M-208,392c-3.6,0-6.5,2.9-6.5,6.5v46.9c0,3.6,2.9,6.5,6.5,6.5h74.9c3.6,0,6.5-2.9,6.5-6.5v-46.9
				c0-3.6-2.9-6.5-6.5-6.5H-208z"/>
		</g>
		<g>
			<path class="st1" d="M-144.8,424h-51.4c-4.6,0-8.9-1.8-12.2-5l-11.5-11.6l2.8-2.8l11.6,11.5c2.5,2.5,5.8,3.9,9.3,3.9h51.4
				c3.5,0,6.9-1.4,9.3-3.9l11.5-11.5l2.8,2.8l-11.4,11.6C-135.9,422.2-140.2,424-144.8,424z"/>
		</g>
		<g>
			<path class="st0" d="M-168.6,430h-3.8c-2.6,0-4.6-2.1-4.6-4.6v-8.7c0-2.6,2.1-4.6,4.6-4.6h3.8c2.6,0,4.6,2.1,4.6,4.6v8.7
				C-164,427.9-166,430-168.6,430z"/>
			<path class="st1" d="M-168.6,432h-3.8c-3.7,0-6.6-3-6.6-6.6v-8.7c0-3.7,3-6.6,6.6-6.6h3.8c3.7,0,6.6,3,6.6,6.6v8.7
				C-162,429-164.9,432-168.6,432z M-172.4,414c-1.5,0-2.6,1.2-2.6,2.6v8.7c0,1.5,1.2,2.6,2.6,2.6h3.8c1.5,0,2.6-1.2,2.6-2.6v-8.7
				c0-1.5-1.2-2.6-2.6-2.6H-172.4z"/>
		</g>
	</g>
</g>
<g id="grid" class="st2">
	<line class="st3" x1="-699" y1="1070.7" x2="-571" y2="1198.7"/>
	<line class="st3" x1="-571" y1="1070.7" x2="-699" y2="1198.7"/>
	<circle class="st3" cx="-635" cy="1134.7" r="52"/>
	<rect x="-699" y="1070.7" class="st3" width="128" height="128"/>
	<line class="st3" x1="-583" y1="1070.7" x2="-583" y2="1198.7"/>
	<line class="st3" x1="-687" y1="1198.7" x2="-687" y2="1070.7"/>
	<line class="st3" x1="-571" y1="1186.7" x2="-699" y2="1186.7"/>
	<line class="st3" x1="-699" y1="1082.7" x2="-571" y2="1082.7"/>
	<line class="st3" x1="-635" y1="1198.7" x2="-635" y2="1070.7"/>
	<line class="st3" x1="-699" y1="1134.7" x2="-571" y2="1134.7"/>
</g>
</svg>
