<?xml version="1.0" encoding="utf-8"?>
<!-- Generator: Adobe Illustrator 19.0.0, SVG Export Plug-In . SVG Version: 6.00 Build 0)  -->
<svg version="1.1" id="Layer_1" xmlns="http://www.w3.org/2000/svg" xmlns:xlink="http://www.w3.org/1999/xlink" x="0px" y="0px"
	 viewBox="182 -60.1 960 960" style="enable-background:new 182 -60.1 960 960;" xml:space="preserve">
<style type="text/css">
	.st0{display:none;}
	.st1{display:inline;}
	.st2{fill:none;stroke:#919191;stroke-width:3;stroke-miterlimit:10;}
	.st3{fill:none;}
	.st4{fill:#FFFFFF;}
</style>
<g id="grid_1_" class="st0">
	<g id="grid" class="st1">
		<line class="st2" x1="728" y1="-240.4" x2="1688" y2="719.6"/>
		<line class="st2" x1="1688" y1="-240.4" x2="728" y2="719.6"/>
		<circle class="st2" cx="1208" cy="239.6" r="390"/>
		<rect x="728" y="-240.4" class="st2" width="960" height="960"/>
		<line class="st2" x1="1598" y1="-240.4" x2="1598" y2="719.6"/>
		<line class="st2" x1="818" y1="719.6" x2="818" y2="-240.4"/>
		<line class="st2" x1="1688" y1="629.6" x2="728" y2="629.6"/>
		<line class="st2" x1="728" y1="-150.4" x2="1688" y2="-150.4"/>
		<line class="st2" x1="1208" y1="719.6" x2="1208" y2="-240.4"/>
		<line class="st2" x1="728" y1="239.6" x2="1688" y2="239.6"/>
	</g>
</g>
<g id="Layer_1_1_">
	<path class="st3" d="M941.5,488.2c-7.9,0-14,6.4-14,14.6v94.5h28v-94.5C955.5,494.6,949.4,488.2,941.5,488.2z"/>
	<path class="st4" d="M1039.8,307.8l-370-157.5c-5.3-2.3-11.3-2.3-16.6,0l-370,157.5c-7.8,3.3-12.9,11-12.9,19.6
		c0,8.5,5.1,16.2,12.9,19.5l179.3,76.3V554c0,60.6,82.5,106.2,191.5,106.2S845.5,614.5,845.5,554V429.6l82.1-35l-0.6,67.8
		c-16.2,6-27.6,21.8-27.6,40.3v109.4c0,7.8,6,14.2,13.8,14.2H970c7.8,0,13.5-6.3,13.5-14.2V502.8c0-18.7-11.6-34.7-28.1-40.5
		l0.7-79.7l83.7-35.6c7.8-3.3,12.9-11,12.9-19.5C1052.7,318.8,1047.6,311.1,1039.8,307.8z M955.5,502.8v94.5h-28v-94.5
		c0-8.2,6.1-14.6,14-14.6C949.4,488.2,955.5,494.6,955.5,502.8z M930.8,347.1l-85.3-10.6l-162.6-20.2l-23.3-2.9
		c-3.8-0.5-7.5,0.7-10.4,2.9c-2.9,2.2-4.9,5.6-5.4,9.5c-0.5,4.3,0.9,8.5,3.7,11.5c2.2,2.4,5.2,4.1,8.6,4.5l130.8,16.5l15.6,2l22,2.8
		l21,2.6l32.2,4.1l-32.2,13.7l-21,8.9l-22,9.4l-141,60l-156-66.4l-21-8.9l-22-9.4l-116.7-49.7L661.5,193l315.7,134.4L930.8,347.1z
		 M802.5,554c0,30.1-63.4,63.7-148.5,63.7S505.5,584,505.5,554V441.5l147.7,62.9c2.7,1.1,5.5,1.7,8.3,1.7s5.7-0.6,8.3-1.7
		l132.7-56.5V554z"/>
</g>
</svg>
