<?xml version="1.0" encoding="utf-8"?>
<!-- Generator: Adobe Illustrator 19.0.0, SVG Export Plug-In . SVG Version: 6.00 Build 0)  -->
<svg version="1.1" id="Layer_1" xmlns="http://www.w3.org/2000/svg" xmlns:xlink="http://www.w3.org/1999/xlink" x="0px" y="0px"
	 viewBox="182 -60.1 960 960" style="enable-background:new 182 -60.1 960 960;" xml:space="preserve">
<style type="text/css">
	.st0{fill:#0000FF;}
	.st1{opacity:0.3;}
	.st2{display:none;}
	.st3{display:inline;}
	.st4{fill:none;stroke:#919191;stroke-width:3;stroke-miterlimit:10;}
</style>
<g id="Layer_1_1_">
	<g>
		<path class="st0" d="M661.5,30.4c-156,0-290.8,92.2-353,224.9c-3.5,6-6.6,11.9-9.1,17.7c-1.8,4.1-3,8.4-3.7,12.7
			c-15.5,41.9-23.9,87.3-23.9,134.5c0,214.9,174.8,389.7,389.7,389.7s389.7-174.8,389.7-389.7C1051.2,205.2,876.4,30.4,661.5,30.4z
			 M936.9,229c-5.1-5-9.6-10.4-14.8-17.7c-6.6-9.4-14.4-18.4-26.9-22.8c-7.3-2.5-14.3-2.4-18.9-2.4c-3,0-6,1.1-8.9,1.3
			c-2.5,0.1-5,2.1-7.9,2.1c0,0,0,0-0.1,0c-6.5,0-12.5,2.8-13.9,9.3c-1.7,8.1-0.5,14,0.6,20.9c0.5,3.4,1,6.5,1.1,9.1
			c0.1,5.7-0.2,13-2.7,18.7c-0.8,1.9-3.4,7.8-15.6,7.8c-5.8,0-12.6-1.4-18.5-4c-8.1-3.4-14.3-8.6-17.4-14.5c-3.7-7-2.5-15.9,0.6-28
			c3.8-14.9,5-27,4.1-40.3c-0.7-10.4,0.5-12.1,0.8-12.3c6.1-4,15.9-4.1,25.4-4.2l4.6-0.1c14.5-0.3,29.4-0.3,43.3,0.3
			c4.8,0.2,9.2,1,13.1,2.3c49.4,41.5,87,96.5,107.3,159.3c-1.1-0.6-2.2-1.2-3.1-1.7c-10.4-5.6-19.5-10.5-28.2-10.5
			c-1.1,0-2.2,0.1-3.3,0.2c-2.1,0.2-5.5,0.8-8.6,2.7c-1.4,0.6-2.8,1.2-4.1,1.8c-1.5,0.7-3.1,1.4-4.4,1.9c0-0.4-0.1-0.9-0.1-1.5
			c-0.1-3-0.6-12,1.8-17c0.8-1.6,2-3.5,3.3-5.5c3.8-6,9-14.1,8.7-24.8C953.5,245.2,943.5,235.5,936.9,229z M440.5,158.7l2.5,1.6
			c1.7,1.1,4.5,2.8,5.8,4c-1.2,2.9-4.2,6.1-7.5,9.5c-3.6,3.7-7.6,7.9-10.7,13.2c-6.3,10.7-3.5,18.8-1.3,22.7
			c4.2,7.4,12.9,11.5,24.4,11.5c3.7,0,7.4-0.4,10.7-1.2c7.3-1.8,14.3-4.5,20.2-8c4.1-2.5,7.4-5.5,10.3-8.1c2.2-2,4.2-3.8,5.9-4.8
			c4.9,0.2,15.2,6.7,19.6,9.5l4.1,2.6c1.8,1.1,6.3,3.9,9,6.2c-2.9,2.1-8.1,4.6-11,5.9c-2.9,1.4-5.6,2.7-7.9,4
			c-10.8,6.1-25.9,16.4-33.2,35.2c-5.3,13.7-4.9,27.2-4.5,39.2c0.2,8.1,0.5,15.7-1,22.6c-0.7,3.4-1.8,4.4-2,4.2
			c-3.3,0-10-3-15.7-8.6c-2-1.9-3.9-4-5.8-6c-4.9-5.2-10.4-11.1-17.3-15.7c-6-4-12.9-6.2-19.4-6.2c-15.1,0-25.8,11.3-25.9,27.5
			c-0.1,12.4,5.5,22.4,10.1,30.5c1.2,2.1,2.4,4.2,3.4,6.3l1.1,2.3c2.8,5.7,5.9,12.1,10.9,17.7c5,5.5,10.9,8.5,15.7,10.9
			c1.5,0.7,3,1.5,4.4,2.3l1.8,1.1c12.3,7.3,23.7,14.1,42.4,12.3c3.2-0.3,7.2-0.5,12-0.4c0,0.1,0,0.2,0.1,0.3
			c0.4,1.8,0.9,3.5,1.3,4.9c5.9,17,17.3,27.2,33.8,30.4c1.6,0.3,3.4,0.5,5.2,0.7c0.6,0.1,1.3,0.1,2,0.2c5.5,7.9,11.3,10.6,18.7,13.5
			c2.9,1.1,4.4,7,4.6,17.7c0.1,7.3-0.9,15-2.1,23.2c-1.1,7.9-2.2,16-2.4,24.5c0,2,0.1,4.3,0.2,6.8c0.1,2.8,0.4,8.4-0.2,11
			c-1,0.1-3.5,0.1-5.7,0c-1.6-0.1-3.1-0.1-4.7-0.1c-6.6,0-16.3,1-24,9.5c-9.6,10.6-8.9,25-8.4,35.6c0.1,2.6,0.3,5.1,0.2,7.4
			c-0.2,4.3-0.9,7.2-2.3,9.2c-0.5,0.8-1.7,1.8-2.8,3c-3.6,3.6-9,8.8-10.5,17.8c-3.3,19.9,7.3,36.1,16.6,50.7
			c4.2,6.6,8.2,12.3,10.2,17.8c0.9,2.5,1.2,4.7,1.3,4.7c0,0,0,0,0,0c-3.8,0-9.2-0.9-16-5.4c-9.4-6.1-17.5-11.8-22.7-18.5
			c-2-2.6-2.4-5.9-2.8-11.8c-0.5-6.6-1.1-14.8-5.9-23.1c-2.1-3.7-4.4-6.9-6.4-9.7c-4.6-6.4-7-10-7.4-15.4c-0.3-3.7,0-7.9,0.4-12.4
			c0.1-1.7,0.3-3.3,0.4-5c0.4-5.7,0.2-11.1,0-16.2c-0.1-3-0.2-5.9-0.2-8.9c0-2.8,0.2-5.6,0.3-8.5c0.6-11.7,1.4-26.2-6.1-39.4
			c-3.7-6.5-9.3-12-17.2-16.9c-2.9-1.8-5.8-3-8.4-4c-0.8-0.3-1.8-0.7-2.7-1.1c0-0.4,0-0.8,0-1.2c0.1-1.7,0.1-3.5,0-5.1
			c-0.3-5.5-1.1-10.5-2-15.4c-0.4-2.4-0.8-4.8-1.2-7.3c-0.8-5.8-0.3-12.1,0.2-18.8c0.5-6.8,1-13.9,0.3-21.4
			c-1.6-18.7-12.7-28.8-23.8-37.6c-3-2.4-5.4-6.2-8.2-10.6c-4.1-6.5-8.7-13.9-17-19.4c-11.6-7.8-24.9-9.5-36.4-10.5
			c-0.1,0-0.1,0-0.2,0c-0.2-0.3-0.2-0.7-0.4-1c-2.4-5.2-4.7-10.4-7.2-15.5l-2.4-5.6c-0.5-1-1-2-1.5-3.2
			c19.4-65.3,57.5-122.7,108.1-165.8C437.7,156.7,439,157.7,440.5,158.7z M661.5,767.5c-191.6,0-347.4-155.9-347.4-347.4
			c0-18.2,1.4-36,4.1-53.5c0.1,0.2,0.2,0.3,0.2,0.5c2.3,4.2,6.6,6.9,11.4,7.3l1.7,0.1c2.1,0.1,4.1,0.3,6.2,0.5
			c8,0.7,17,1.8,23.1,5.8c3.3,2.2,5.8,6.2,8.7,10.9c3.6,5.8,7.8,12.4,14.7,17.8c9.2,7.2,12.6,11,13.2,17.8c0.5,5.3,0,10.9-0.4,16.9
			c-0.6,7.8-1.1,15.8,0,24.5c0.4,2.8,0.9,5.6,1.3,8.4c0.7,4.2,1.4,8.2,1.6,12c0,0.8,0,1.7,0,2.6c-0.2,5-0.6,14.3,6.8,21.7
			c4.4,4.4,9.7,6.5,13.5,8c1.5,0.6,3.1,1.2,3.9,1.7c3.8,2.4,6.3,4.7,7.6,7c3.4,5.9,2.9,14.6,2.4,23.8c-0.2,3.3-0.4,6.7-0.4,9.9
			c0,3.4,0.1,6.8,0.2,10.1c0.2,4.7,0.3,9.1,0.1,13.3c-0.1,1.5-0.2,3-0.4,4.5c-0.4,5.2-0.9,11-0.4,17.1c1.1,13.3,7.2,21.8,12.5,29.3
			c1.7,2.4,3.4,4.8,5,7.5c1.5,2.5,1.8,5.8,2.1,10.9c0.5,7.4,1.3,17.5,8.6,27c9.1,11.7,21.1,20.7,29.6,26.3
			c7.4,4.8,18.8,11.3,31.4,11.3c3.5,0,6.9-0.5,10.1-1.5c6.8-2.1,12.1-6.4,15.1-12.6c5.4-10.7,2.3-23.1,0-29.6
			c-3-8.5-8.1-16.4-13-24.1c-7.2-11.3-14.1-22.1-12.6-31c0.3-0.6,1.8-2,2.7-3c1.9-1.9,4.2-4.2,6.2-7.2c4.3-6.4,6.6-14.1,7.1-23.8
			c0.1-3,0-6.4-0.2-10c-0.2-4.7-0.6-13.4,0.9-15.2c0.1,0,0.8-0.3,3.2-0.3c1.2,0,2.4,0,3.6,0.1c1.5,0.1,3.1,0.1,4.6,0.1
			c5.8,0,14.2-0.8,21.4-7.2c10.3-9.4,9.6-23.9,9.1-33.4c-0.1-1.8-0.2-3.5-0.2-4.9c0.1-6.7,1.1-13.7,2.1-21c1.2-8.9,2.5-18,2.3-27.5
			c-0.2-9.6-0.6-35.1-22.7-43.5c-4.7-1.8-4.7-1.8-6-3.9c-6-9.9-16.4-10.9-22-11.5c-0.9-0.1-1.8-0.2-2.7-0.3
			c-5.8-1.1-9.4-3.3-12.4-11.9c-0.2-0.6-0.4-1.4-0.6-2.2c-1.3-5.3-5.2-21.6-21.3-21.8l-1,0c-2.2,0-4.5-0.1-6.7-0.1
			c-5.2,0-9.4,0.2-13.2,0.6c-8.9,0.9-14-1.9-25.2-8.5l-1.8-1.1c-1.9-1.1-3.9-2.2-6-3.2c-3.1-1.6-6-3-7.5-4.6
			c-2.4-2.6-4.4-6.7-6.5-11.1l-1.2-2.5c-1.3-2.5-2.7-5.1-4.1-7.6c-3.2-5.7-6-10.7-6.4-15.3c0.4,0.2,0.9,0.5,1.4,0.8
			c4.2,2.8,8.2,7.1,12.4,11.6c2.2,2.4,4.4,4.7,6.7,7c4,3.9,18.4,16.6,35.4,16.6c15,0,26.1-10,29.6-26.6c2.2-10.2,1.9-19.9,1.6-29.3
			c-0.3-10.6-0.6-19.8,2.6-28.2c3.1-8,9.5-14.4,20.8-20.9c1.8-1,3.8-2,6-3c9-4.3,20.3-9.6,25.8-20.2c11.4-21.6-13.2-36.6-21.3-41.5
			l-3.7-2.3c-8.7-5.5-21.9-13.9-34.9-13.9c-4.1,0-8,0.8-11.4,2.5c-5.5,2.6-9.7,6.4-13.3,9.7c-2.1,1.9-4.1,3.7-5.8,4.7
			c-1.8,1.1-3.8,2-5.9,2.8c4.6-5,9.6-11.1,11.9-19.3c5.2-18.3-8.4-28.6-16.3-33.7c56.9-40.7,126.5-64.8,201.7-64.8
			c66.1,0,127.9,18.6,180.5,50.7c-4.8,0-9.5,0-14.3,0.1l-4.3,0.1c-12.3,0.2-27.6,0.4-40.6,8.9c-15.4,10.1-14.1,28.8-13.5,37.8
			c0.7,10.4-0.2,19.5-3.3,31.5c-2.7,10.5-7.6,30.1,1.8,48.1c6.1,11.6,17.3,21.3,31.4,27.3c9.4,4,19.9,6.2,29.5,6.2
			c19.5,0,34.6-9,41.5-24.7c4.7-10.6,5.1-21.8,5-30.4c-0.1-4.6-0.8-9-1.4-13.2c-0.1-0.6-0.2-1.1-0.3-1.7c5-0.1,9.2,0.2,12.2,1.2
			c4.7,1.7,8.7,6.2,13.2,12.6c6.2,8.9,11.8,15.6,18.2,21.9c3.4,3.3,8.4,8.3,8.5,11.1c0.1,1.9-2.1,5.3-4.2,8.6
			c-1.6,2.5-3.4,5.4-5,8.6c-4.8,10-4.9,21.6-4.5,30.5c1,21.5,13.7,29.1,25.3,29.1c7.8,0,14-2.9,19.1-5.2c1.7-0.8,3.3-1.5,4.7-2
			c3.1,0.9,9.9,4.5,14.4,6.9c8.5,4.6,17.2,9.2,25.6,10.9c5,23.4,7.7,47.6,7.7,72.5C1008.9,611.7,853.1,767.5,661.5,767.5z"/>
		<path class="st0" d="M948,397c-9.9,0-21,3-26.8,4.8c-0.8,0.2-1.4,0.4-2,0.4c-2.2,0-5.3-3.4-8.4-9.1c-2.5-4.7-4.2-10.1-6.1-15.8
			c-2.6-8-5.5-17-11-25.4c-1.2-1.9-1.7-4.3-2.5-8.3c-0.8-4.2-1.7-9.5-4.4-14.9c-4.1-8.2-11.9-13-21.6-13c-7.1,0-14.2,2.5-19.9,4.5
			c-2,0.7-4.6,1.6-5.6,1.8c-7.3,1.3-14.5,0.1-23.1-1.6c-3.3-0.6-6.6-1.3-10.2-1.9c-8.2-1.3-15.8,1.1-21.6,3c-0.1,0-0.1,0-0.2,0.1
			c6.8-11.3,4.5-20.2,2.3-24.9c-5.1-10.5-17.9-16.8-34.4-16.8c-0.7,0-1.1,0-1.7,0c-0.3,0-2.1,0-2.4,0c0,0-2.9,0-2.9,0.1v0l-0.5,0.3
			c0,0-0.1-0.1-0.2-0.1l0.1,0.1c0,0,0,0,0,0c0,0,0,0-0.1,0c0,0,0,0-0.1,0l-7.8,1c-10.5,1.3-21.4,2.6-32.1,4.6
			c-17,3.2-27.3,13.5-35.5,21.7c-2.5,2.4-5,4.9-7.6,7.4c-16,15.3-34.1,32.8-40.2,56.8c-6.1,24.4-0.2,52.5,15.4,73.3
			c13.2,17.6,32.9,27.7,60.1,31l7.1,0.8c19.6,2.2,39.9,4.5,50.1,18c5.8,7.7,9.2,16.8,9.6,25.5c0.3,5-0.3,10.3-0.9,15.9
			c-0.6,5.9-1.3,12-1.1,18.6c0.3,10,3.4,18.9,6.1,26.7c1.6,4.6,3.1,8.9,3.9,13c0.3,1.5,0.6,3.3,0.8,5c1.4,9.6,3.4,22.7,14,31
			c4.7,3.7,10.7,5.7,17.1,5.7c9.7,0,18.9-4.4,25-7.3l1-0.5c12.2-5.7,23.2-13.1,33.4-20.2c2-1.4,4-2.8,6.1-4.1
			c5.2-3.5,10.6-7.1,15.8-11.4l2.6-2.2c3.7-3.2,5.9-5,8.6-6c12.5-4.4,26.8-10,37-22.3c9.9-11.8,4.7-24,2.2-29.8
			c-0.4-0.8-0.7-1.7-1-2.5c-1.6-4.1-2.5-8.9-2.9-14.8c-0.1-2-0.3-4.1-0.5-6.2c-0.7-8.4-1.6-20,1-25.4c4.5-9.5,10.9-18.8,20.1-29.4
			c0.8-1,2.1-2.2,3.4-3.6c9.1-9.3,22.8-23.3,17.4-39C971.4,407.4,965.9,397,948,397z M935.4,431c-1.9,1.9-3.5,3.6-4.7,4.9
			c-10.8,12.5-18.4,23.8-24.1,35.6c-5.9,12.3-4.7,27.6-3.7,40c0.2,2,0.3,3.9,0.4,5.7c0.5,8.8,2.1,16.4,4.7,23.1
			c0.4,1.2,0.9,2.3,1.4,3.5c0.3,0.6,0.6,1.3,0.8,2c-5.8,5.9-14.7,9.4-23.4,12.4c-7.9,2.7-13.1,7.3-17.8,11.2l-2.2,1.9
			c-4,3.3-8.5,6.4-13.3,9.6c-2.2,1.5-4.4,2.9-6.5,4.4c-9.1,6.4-19,12.9-29.3,17.8l-1.1,0.5c-3.6,1.7-9.6,4.6-12.9,4.6
			c-1.6-2-2.7-9.4-3.2-12.7c-0.3-2.2-0.7-4.4-1.1-6.4c-1.2-6-3.1-11.5-4.9-16.7c-2.2-6.5-4.4-12.6-4.5-18.2c-0.1-4.6,0.4-9.6,1-14.8
			c0.7-6.5,1.4-13.1,1-20.3c-0.7-14.3-6.1-28.8-15.2-41c-17.5-23.4-46.4-26.6-69.6-29.2l-6.8-0.8c-19.7-2.4-32.4-8.6-41-20
			c-10.5-13.9-14.7-33.3-10.6-49.4c4.1-16.2,18.3-29.9,32.2-43.3c2.7-2.6,5.2-5.2,7.8-7.8c8.4-8.4,12.9-12.5,20.6-14
			c9.8-1.9,17.5-3.2,27.6-4.5l1.5-0.6v0l6.4-0.4c0.1,0,2.7,0,2.7,0c3.8-0.5,8.5-0.1,11,0.6c-7,8.9-9.1,18.8-6.3,27.2
			c1.4,4.2,5.7,11.8,17.2,14.7c2.4,0.6,5,0.9,7.6,0.9c6.3,0,11.8-1.8,16.5-3.3c3.1-1,6.1-1.8,8.5-1.9c3.1,0.5,6.1,1.1,9,1.6
			c6.8,1.3,13.8,2.7,21.8,2.7c4.1,0,8-0.4,12-1.1c3.2-0.6,6.5-1.8,9.9-3c2.3-0.8,5.3-1.9,7.8-2.5c0.3,1.3,0.6,2.8,0.9,4.3
			c1,5.3,2.2,12,6.6,18.8c3.4,5.2,5.5,11.7,7.8,18.6c2.2,6.7,4.4,13.6,8.1,20.4c8.5,16,19.7,24.1,33.3,24.1c3.4,0,6.9-0.6,10.4-1.7
			c3.1-1,6.9-2,10.5-2.7C938.3,428,936.6,429.9,935.4,431z"/>
	</g>
	<g class="st1">
		<path class="st0" d="M290.3,360.4c-1.7-5.8-1.1-12.9-2-19c-1.1-7,0.1-14,2.9-20.5c5.9-13.5,14.1-26.2,22.9-38
			c17.5-23.4,34.7-46.9,55.7-67.2c9.6-9.2,17.2-20.3,26.9-29.4c4.3-4,9.3-8,15.7-7c6,0.9,9.8,6.8,14.6,9.9
			c7.5,4.8,17.5,9.7,14.5,20.5c-3.1,10.9-14.3,17.3-19.8,26.7c-7.6,13,9.6,14.2,18.4,12.1c5.6-1.3,11.3-3.5,16.2-6.4
			c6.4-3.8,11.2-10.6,17.9-13.8c10.1-4.8,27,7,35.1,12.1c7,4.4,23.2,13.2,17.7,23.8c-4.6,8.7-18.4,13-26.4,17.5
			c-11.7,6.7-22,15.1-27,28c-7.5,19.5-0.7,39.8-4.9,59.6c-5.2,24.5-28.4,15.4-41.4,2.8c-6.9-6.8-13-14.7-21.1-20.1
			c-10.4-6.9-23.3-5-23.4,9.6c-0.1,11.3,7.2,20.7,12,30.4c2.8,5.7,5.6,12,9.9,16.8c4.5,5,11.1,7.2,16.7,10.5
			c12.1,7.1,21,12.9,35.6,11.4c6.4-0.6,13-0.5,19.4-0.4c6.6,0.1,7.1,9.9,8.7,14.5c4,11.6,10.8,18.8,23.1,21.1
			c5.1,1,12.1,0.1,15.2,5.2c3.6,5.9,6.6,7.3,13.1,9.8c12.1,4.6,13.5,19.4,13.7,30.6c0.3,15.9-4.2,32-4.4,48.1
			c-0.1,8.1,2.5,21.9-4.3,28.1c-9.1,8.2-24.6-1.8-33.6,8.2c-7.6,8.4-4.1,24-4.6,34.2c-0.3,5.8-1.4,11.6-4.7,16.5
			c-3.7,5.4-9.9,8.5-11.1,15.5c-3.8,22.6,19.2,42.8,26.1,62.4c2.9,8.2,4.5,20.8-6,24c-10.2,3.1-21.5-2.7-29.7-8.1
			c-9.4-6.1-19.2-14.2-26.1-23.1c-8.9-11.4-2.9-24.5-9.7-36.3c-6.2-10.7-14.6-17.7-15.7-31c-0.6-6.5,0.4-13,0.8-19.5
			c0.6-8.2-0.3-16.1-0.3-24.3c0.1-13.4,3.1-28.5-3.9-40.8c-2.9-5.1-7.5-8.9-12.4-12c-4.7-2.9-11-3.9-15-7.8c-4-4-2.4-9.9-2.7-14.9
			c-0.4-7.3-2.1-14.3-3-21.5c-1.8-13.6,1.6-27.2,0.5-40.8c-1.1-13-8.8-20.1-18.5-27.7c-10.4-8.2-13.2-22-24.3-29.4
			c-8.7-5.8-19.5-7.3-29.7-8.2c-2.7-0.2-5.4-0.4-8.1-0.6c-1.5-2.8-2.9-5.7-4.3-8.7c-3.2-7-6.7-13.9-10-20.9
			C293.4,369,291.5,364.8,290.3,360.4C288.8,355.3,292.5,368.1,290.3,360.4z"/>
	</g>
	<g class="st1">
		<path class="st0" d="M944.8,351.1c13.5-3.5,55.4,37.2,57.1,7.5c1.6-29.3-18.9-53.2-29.5-78.8c-5.1-12.3-10.2-24.1-18.7-34.5
			c-9.4-11.5-20.3-21.9-31-32.2c-20.1-19.3-34.5-38.8-64.6-39.9c-14.6-0.5-29.5-0.6-44.1-0.3c-12.3,0.3-26.6-0.5-37.4,6.6
			c-8.2,5.4-7.8,16.5-7.2,25.1c0.9,12.8-0.5,23.4-3.7,35.9c-3.2,12.6-5.7,26,0.6,38c5.1,9.7,14.4,16.7,24.4,20.9
			c17.2,7.3,43.6,9.1,52.5-11.2c3.4-7.7,3.9-16.3,3.9-24.6c-0.1-9.2-3.9-19.6-2-28.7c10.4,0.1,21.2-2,31.3,1.5
			c8.9,3.1,14.8,10.4,20.1,17.8c5,7.2,10.2,13.6,16.5,19.8c5.7,5.6,12.6,12.3,12.9,20.8c0.3,9.1-6.9,16.1-10.6,23.8
			c-3.3,7-3.5,16.1-3.1,23.7c0.3,7.1,2.4,15.8,11.1,15.7C931,358.2,937.5,353,944.8,351.1C947,350.5,937,353.1,944.8,351.1z"/>
	</g>
	<g class="st1">
		<path class="st0" d="M732.7,343.8c15.7-2,38.2,4.8,23.5,23.2c-5.1,6.4-8.4,16.7,2.8,19.5c10.6,2.6,20.5-6.2,31.3-4.6
			c13.5,2.1,24.1,5.9,38,3.3c8.5-1.6,26.2-12.3,31.8-1c4,8.1,2.5,16.8,7.7,24.8c8.1,12.3,9.6,27.2,16.5,40.1
			c5.8,10.8,14.1,19.7,27.1,15.6c6.7-2.1,30.8-8.9,34.3,1.1c3.2,9.2-13.1,22.8-18.2,28.8c-8.6,10-16.3,20.5-22.1,32.5
			c-5.1,10.6-2.6,27.2-1.9,38.7c0.4,6.5,1.4,12.9,3.8,19c2.4,6.4,6.3,12,1.1,18.2c-7.9,9.4-19.6,14.2-30.8,18
			c-6.4,2.2-10.5,6.4-15.6,10.6c-6.5,5.4-13.9,9.9-20.9,14.8c-10,7-20.3,13.7-31.4,19c-7.8,3.7-20.3,10.1-28.4,3.8
			c-7.7-6-7.9-19-9.7-27.7c-2.5-12.7-9.4-24.2-9.7-37.3c-0.3-11.6,2.6-23.1,2-34.8c-0.6-12-5.2-23.6-12.4-33.2
			c-15.3-20.5-43.5-21.6-66.8-24.4c-20-2.4-38-8.9-50.5-25.5c-12.8-16.9-18.2-40.7-13-61.4c6-23.7,27.4-41.1,44.1-57.6
			c8.6-8.5,16-15.5,28.2-17.8C706.3,346.9,719.6,345.4,732.7,343.8C742,342.5,722.5,345.1,732.7,343.8z"/>
	</g>
</g>
<g id="grid_1_" class="st2">
	<g id="grid" class="st3">
		<line class="st4" x1="182" y1="-60.1" x2="1142" y2="899.9"/>
		<line class="st4" x1="1142" y1="-60.1" x2="182" y2="899.9"/>
		<circle class="st4" cx="662" cy="419.9" r="390"/>
		<rect x="182" y="-60.1" class="st4" width="960" height="960"/>
		<line class="st4" x1="1052" y1="-60.1" x2="1052" y2="899.9"/>
		<line class="st4" x1="272" y1="899.9" x2="272" y2="-60.1"/>
		<line class="st4" x1="1142" y1="809.9" x2="182" y2="809.9"/>
		<line class="st4" x1="182" y1="29.9" x2="1142" y2="29.9"/>
		<line class="st4" x1="662" y1="899.9" x2="662" y2="-60.1"/>
		<line class="st4" x1="182" y1="419.9" x2="1142" y2="419.9"/>
	</g>
</g>
</svg>
